<?xml version="1.0" encoding="utf-8"?>
<!-- Generator: Adobe Illustrator 17.0.0, SVG Export Plug-In . SVG Version: 6.00 Build 0)  -->
<!DOCTYPE svg PUBLIC "-//W3C//DTD SVG 1.1//EN" "http://www.w3.org/Graphics/SVG/1.1/DTD/svg11.dtd">
<svg version="1.1" id="Capa_1" xmlns="http://www.w3.org/2000/svg" xmlns:xlink="http://www.w3.org/1999/xlink" x="0px" y="0px"
	 width="75px" height="85px" viewBox="0 0 75 85" enable-background="new 0 0 75 85" xml:space="preserve">
<g>
	<path fill="#FFFFFF" d="M10.86,37.095c5.046,3.532,10.827,4.616,16.642,5.405c9.653,1.311,19.24,0.913,28.668-1.758
		c2.82-0.799,5.502-1.885,7.982-3.867c0.287,0.885,0.548,1.678,0.8,2.473c0.795,2.513,1.467,5.074,2.411,7.53
		c1.093,2.844,0.329,5.264-1.3,7.559c-1.937,2.729-4.707,4.376-7.696,5.694c-5.538,2.441-11.411,3.369-17.392,3.65
		c-7.923,0.373-15.734-0.279-23.215-3.179c-3.084-1.196-5.95-2.789-8.105-5.371c-0.775-0.929-1.399-2.019-1.919-3.117
		c-0.72-1.519-0.812-3.078-0.219-4.75C8.715,43.986,9.746,40.549,10.86,37.095z M40.979,50.376c-1.591,0-3.135-0.034-4.676,0.015
		c-0.73,0.023-1.096-0.183-1.386-0.909c-0.56-1.402-2.061-1.924-3.392-1.327c-1.172,0.526-1.846,2.003-1.266,3.212
		c0.357,0.745,0.285,1.257-0.016,1.973c-0.417,0.993-0.25,2.134,0.701,2.675c0.74,0.421,1.808,0.61,2.636,0.442
		c1.038-0.211,1.564-1.175,1.571-2.292c0.002-0.375-0.056-0.751-0.086-1.125c2.087,0,4.078,0,6.113,0
		c0,0.169,0.016,0.295-0.002,0.415c-0.203,1.348,0.131,2.462,1.46,3.047c1.01,0.444,1.996,0.266,2.771-0.514
		c0.959-0.964,0.917-2.078,0.372-3.268c-0.128-0.279-0.004-0.735,0.128-1.059c0.666-1.63-0.1-3.324-1.69-3.658
		C42.701,47.685,41.653,48.415,40.979,50.376z"/>
	<path fill="#FFFFFF" d="M55.611,38.279c0.797-3.787-0.025-5.502-3.45-7.351c-1.201-0.648-2.073-1.322-2.571-2.71
		c-0.735-2.05-3.058-3.023-5.473-2.472c-0.984,0.225-1.57,0.047-2.233-0.722c-2.172-2.519-5.748-2.153-7.443,0.743
		c-0.587,1.002-1.156,1.2-2.194,0.603c-2.992-1.719-6.037-0.514-7.228,2.731c-0.167,0.456-0.606,0.839-0.986,1.181
		c-0.26,0.235-0.639,0.337-0.96,0.507c-3.589,1.897-4.299,3.252-3.725,7.288c-2.373-0.665-4.631-1.412-6.574-2.905
		c-0.995-0.765-1.093-1.712-0.254-2.572c0.88-0.903,1.837-1.791,2.914-2.424c1.321-0.776,2.764-1.395,4.222-1.876
		c1.991-0.657,3.856-1.111,5.327-3.029c1.591-2.074,4.222-2.356,6.761-1.55c0.753,0.239,1.165,0.181,1.73-0.431
		c2.482-2.691,6.352-2.861,9.249-0.593c0.531,0.416,1.352,0.67,2.031,0.654c2.77-0.067,4.94,0.912,6.544,3.21
		c0.319,0.458,0.924,0.849,1.47,0.993c2.915,0.769,5.773,1.656,8.266,3.421c2.764,1.957,2.733,3.376-0.209,4.979
		C59.248,36.814,57.539,37.43,55.611,38.279z"/>
	<path fill="#F29100" d="M36.289,35.651c-2.744-0.176-4.82-0.699-6.472-2.318c-0.58-0.569-1.121-1.233-0.457-1.994
		c0.708-0.81,1.255-0.137,1.943,0.289c1.123,0.696,2.401,1.15,3.635,1.654c0.319,0.13,0.789-0.05,1.062,0.118
		c0.506,0.313,0.918,0.778,1.37,1.18C36.923,35.023,36.476,35.465,36.289,35.651z"/>
	<path fill="#F29100" d="M47.151,33.031c0.057,2.053-1.725,3.905-3.394,3.784c-0.416-0.03-1.043-0.51-1.122-0.879
		c-0.074-0.348,0.363-1.076,0.721-1.193c0.944-0.309,1.618-0.639,1.725-1.784c0.027-0.287,0.821-0.727,1.223-0.688
		C46.68,32.307,47.004,32.886,47.151,33.031z"/>
	<path fill="#F29100" d="M40.979,50.376c0.675-1.961,1.723-2.691,3.238-2.373c1.59,0.334,2.356,2.028,1.69,3.658
		c-0.132,0.324-0.256,0.781-0.128,1.059c0.546,1.191,0.588,2.304-0.372,3.268c-0.776,0.779-1.761,0.958-2.771,0.514
		c-1.329-0.585-1.664-1.699-1.46-3.047c0.018-0.12,0.002-0.246,0.002-0.415c-2.034,0-4.026,0-6.113,0
		c0.03,0.374,0.088,0.75,0.086,1.125c-0.007,1.117-0.533,2.081-1.571,2.292c-0.829,0.168-1.897-0.021-2.636-0.442
		c-0.951-0.541-1.118-1.682-0.701-2.675c0.301-0.715,0.374-1.228,0.016-1.973c-0.58-1.209,0.094-2.686,1.266-3.212
		c1.33-0.597,2.832-0.075,3.392,1.327c0.29,0.726,0.656,0.932,1.386,0.909C37.844,50.342,39.388,50.376,40.979,50.376z"/>
</g>
</svg>
