<?xml version="1.0" encoding="utf-8"?>
<!-- Generator: Adobe Illustrator 17.0.0, SVG Export Plug-In . SVG Version: 6.00 Build 0)  -->
<!DOCTYPE svg PUBLIC "-//W3C//DTD SVG 1.1//EN" "http://www.w3.org/Graphics/SVG/1.1/DTD/svg11.dtd">
<svg version="1.1" id="Capa_1" xmlns="http://www.w3.org/2000/svg" xmlns:xlink="http://www.w3.org/1999/xlink" x="0px" y="0px"
	 width="75px" height="85px" viewBox="0 0 75 85" enable-background="new 0 0 75 85" xml:space="preserve">
<g>
	<path fill="#FFFFFF" d="M4.75,18.862c1.039-2.474,2.991-4.07,5.191-5.442c0.421-0.263,0.814-0.61,1.133-0.991
		c1.77-2.107,4.373-2.562,6.405-1.09c1.929,1.397,2.413,4.035,1.104,6.011c-1.382,2.085-3.998,2.566-6.368,1.171
		c-0.172-0.101-0.347-0.199-0.523-0.3c-1.327,0.735-2.11,1.569-1.765,3.3c1.234,6.2,2.813,12.292,5.91,17.838
		c1.204,2.155,2.743,4.229,4.518,5.936c2.819,2.71,6.113,2.591,9.131,0.066c2.621-2.192,4.223-5.115,5.618-8.151
		c2.255-4.907,3.63-10.085,4.734-15.359c0.373-1.781-0.157-2.839-1.079-3.3c-1.961,0.271-3.397,0.726-4.778,0.597
		c-1.86-0.174-3.148-1.72-3.41-3.465c-0.296-1.968,0.565-3.762,2.24-4.663c1.575-0.847,3.681-0.642,5.055,0.493
		c1.369,1.13,2.711,2.295,4.114,3.382c2.402,1.86,3.413,4.108,2.799,7.237c-1.327,6.761-3.129,13.345-6.355,19.469
		c-1.882,3.573-4.486,6.448-7.653,9.053c-1.791,1.473-3.317,4.307-2.949,6.764c1.421,9.47,8.068,12.91,17.151,12.056
		c6.14-0.578,10.457-3.562,12.267-9.675c0.042-0.141,0.032-0.297,0.055-0.529c-0.353-0.165-0.71-0.343-1.075-0.502
		c-4.33-1.883-6.693-6.222-5.915-10.866c0.711-4.246,4.458-7.633,8.92-8.065c4.53-0.438,8.851,2.285,10.39,6.543
		c0.205,0.567,0.421,1.13,0.632,1.695c0,1.025,0,2.05,0,3.075c-0.111,0.279-0.252,0.55-0.329,0.838
		c-0.913,3.414-3.03,5.763-6.339,6.952c-0.89,0.319-1.242,0.759-1.477,1.655c-1.819,6.936-6.201,11.359-13.175,13.138
		c-1.282,0.327-2.596,0.529-3.895,0.788c-1.64,0-3.28,0-4.92,0c-0.288-0.09-0.571-0.224-0.866-0.265
		c-8.731-1.216-14.033-5.975-16.077-14.558c-0.427-1.794-0.824-3.521-1.987-5.047c-0.592-0.777-0.731-1.887-1.148-2.813
		c-0.216-0.479-0.495-1.044-0.911-1.299c-2.778-1.704-4.837-4.083-6.517-6.811c-3.003-4.877-4.88-10.215-6.29-15.731
		c-0.566-2.214-1.048-4.449-1.568-6.674C4.75,20.502,4.75,19.682,4.75,18.862z M60.163,54.656c2.801,0.01,5.146-2.285,5.112-5.001
		c-0.035-2.751-2.367-4.997-5.164-4.975c-2.74,0.022-4.972,2.232-4.996,4.95C55.089,52.444,57.301,54.646,60.163,54.656z"/>
	<path fill="#FFFFFF" d="M62.603,49.733c-0.02,1.353-1.1,2.372-2.485,2.349c-1.351-0.023-2.437-1.128-2.409-2.453
		c0.027-1.288,1.219-2.419,2.512-2.383C61.567,47.283,62.623,48.386,62.603,49.733z"/>
</g>
</svg>
