<?xml version="1.0" encoding="utf-8"?>
<!-- Generator: Adobe Illustrator 17.0.0, SVG Export Plug-In . SVG Version: 6.00 Build 0)  -->
<!DOCTYPE svg PUBLIC "-//W3C//DTD SVG 1.1//EN" "http://www.w3.org/Graphics/SVG/1.1/DTD/svg11.dtd">
<svg version="1.1" id="Capa_1" xmlns="http://www.w3.org/2000/svg" xmlns:xlink="http://www.w3.org/1999/xlink" x="0px" y="0px"
	 width="192px" height="198px" viewBox="0 0 192 198" enable-background="new 0 0 192 198" xml:space="preserve">
<g>
	<path fill="#F29100" d="M171.844,98.5c0,21.393-8.434,33.305-22.069,45.33c-13.635,11.435-32.47,22.983-53.278,30.016
		c-20.805,7.033-39.643,1.713-53.278-14.121C29.588,144.479,21.156,118.717,21.156,98.5c0-21.393,8.434-33.305,22.069-45.33
		c13.635-11.435,32.47-22.983,53.278-30.016c20.805-7.033,39.643-1.713,53.278,14.121C163.412,52.521,171.844,78.283,171.844,98.5z"
		/>
</g>
<g>
	<g>
		<g>
			<g>
				<path fill="#2F53A0" d="M154.981,168.779c-39.933-6.326-80.615-6.326-120.548,0c1.341-3.098,2.725-6.191,4.148-9.274
					c-2.236-2.558-4.511-5.097-6.822-7.616c41.705-6.604,84.191-6.604,125.896,0c-1.972,2.573-3.916,5.16-5.825,7.761
					C152.914,162.69,153.964,165.734,154.981,168.779z"/>
			</g>
		</g>
	</g>
	<g>
		<g>
			<path fill="#F5F5F5" d="M42.114,159.551c0.203,1.191,0.407,2.384,0.61,3.574c-0.375,0.065-0.753,0.128-1.128,0.194
				c-0.549-3.151-1.101-6.302-1.65-9.453c0.908-0.16,1.817-0.312,2.727-0.465c1.062-0.177,1.926-0.061,2.587,0.341
				s1.06,1.053,1.198,1.953c0.14,0.9-0.068,1.684-0.617,2.36c-0.549,0.673-1.362,1.099-2.444,1.278
				C42.971,159.406,42.542,159.478,42.114,159.551z M41.281,154.67c0.22,1.292,0.44,2.587,0.663,3.879
				c0.399-0.068,0.799-0.136,1.2-0.203c0.791-0.133,1.365-0.404,1.726-0.82c0.361-0.419,0.491-0.946,0.39-1.585
				c-0.198-1.251-1.072-1.757-2.619-1.5C42.187,154.515,41.734,154.592,41.281,154.67z"/>
		</g>
		<g>
			<path fill="#F5F5F5" d="M53.774,158.263c-1.641,0.218-3.282,0.448-4.92,0.692c0.131,0.753,0.426,1.304,0.881,1.655
				c0.457,0.353,1.031,0.479,1.723,0.38c0.779-0.111,1.459-0.46,2.047-1.053c0.046,0.341,0.092,0.68,0.138,1.021
				c-0.549,0.515-1.321,0.84-2.316,0.983c-0.973,0.138-1.784-0.056-2.432-0.588c-0.649-0.532-1.062-1.355-1.232-2.471
				c-0.162-1.055,0.015-1.96,0.535-2.718c0.52-0.757,1.244-1.203,2.168-1.333c0.922-0.131,1.677,0.058,2.258,0.566
				c0.583,0.506,0.939,1.273,1.075,2.294C53.723,157.883,53.75,158.072,53.774,158.263z M52.506,157.496
				c-0.09-0.627-0.312-1.094-0.67-1.401s-0.811-0.421-1.36-0.344c-0.532,0.075-0.956,0.324-1.273,0.745
				c-0.317,0.421-0.474,0.934-0.472,1.537C49.989,157.847,51.247,157.668,52.506,157.496z"/>
		</g>
		<g>
			<path fill="#F5F5F5" d="M56.968,161.032c-0.368,0.046-0.738,0.092-1.106,0.138c-0.426-3.354-0.854-6.708-1.28-10.065
				c0.38-0.048,0.762-0.097,1.142-0.143C56.138,154.319,56.552,157.675,56.968,161.032z"/>
		</g>
		<g>
			<path fill="#F5F5F5" d="M64.804,160.163c-0.37,0.036-0.738,0.073-1.108,0.111c-0.036-0.361-0.073-0.719-0.109-1.079
				c-0.01,0-0.017,0.002-0.027,0.002c-0.378,0.874-1.045,1.358-2.009,1.464c-1.646,0.179-2.582-0.687-2.81-2.619
				c-0.157-1.355-0.317-2.713-0.474-4.068c0.375-0.044,0.75-0.087,1.125-0.128c0.148,1.3,0.295,2.597,0.44,3.896
				c0.165,1.438,0.803,2.091,1.924,1.97c0.542-0.058,0.968-0.3,1.278-0.731c0.31-0.428,0.433-0.961,0.37-1.595
				c-0.133-1.309-0.266-2.619-0.399-3.928c0.378-0.039,0.755-0.075,1.133-0.114C64.357,155.616,64.582,157.891,64.804,160.163z"/>
		</g>
		<g>
			<path fill="#F5F5F5" d="M73.183,162.615c-0.365,0.027-0.733,0.053-1.099,0.08c-0.109-1.44-0.215-2.877-0.324-4.317
				c-0.01,0-0.017,0.002-0.027,0.002c-0.419,0.927-1.171,1.43-2.268,1.522c-0.871,0.073-1.595-0.172-2.176-0.736
				c-0.581-0.564-0.924-1.372-1.021-2.425c-0.104-1.133,0.104-2.064,0.632-2.795s1.292-1.14,2.289-1.222
				c0.968-0.08,1.701,0.237,2.188,0.941c0.01,0,0.019-0.002,0.027-0.002c-0.024-0.317-0.048-0.632-0.07-0.949
				c0.378-0.029,0.757-0.056,1.135-0.082C72.706,155.962,72.946,159.289,73.183,162.615z M71.617,156.475
				c-0.024-0.332-0.051-0.663-0.075-0.995c-0.041-0.561-0.266-1.021-0.675-1.377c-0.409-0.358-0.905-0.513-1.491-0.465
				c-0.68,0.056-1.198,0.346-1.551,0.866c-0.353,0.523-0.489,1.225-0.409,2.108c0.07,0.787,0.312,1.387,0.728,1.801
				c0.416,0.414,0.917,0.595,1.51,0.547c0.651-0.053,1.152-0.312,1.508-0.782C71.513,157.712,71.665,157.143,71.617,156.475z"/>
		</g>
		<g>
			<path fill="#F5F5F5" d="M80.82,159.006c-0.37,0.017-0.741,0.034-1.111,0.053c-0.017-0.361-0.036-0.721-0.053-1.082
				c-0.01,0-0.017,0-0.027,0.002c-0.421,0.852-1.113,1.302-2.079,1.358c-1.65,0.094-2.541-0.82-2.667-2.761
				c-0.09-1.362-0.177-2.725-0.266-4.087c0.375-0.024,0.753-0.048,1.128-0.07c0.08,1.304,0.16,2.609,0.24,3.913
				c0.09,1.442,0.695,2.13,1.817,2.064c0.545-0.031,0.98-0.252,1.312-0.663c0.332-0.411,0.482-0.937,0.45-1.573
				c-0.065-1.314-0.131-2.628-0.196-3.945c0.38-0.019,0.757-0.036,1.137-0.056C80.607,154.445,80.714,156.724,80.82,159.006z"/>
		</g>
		<g>
			<path fill="#F5F5F5" d="M88.579,155.592c-1.65,0.034-3.303,0.082-4.954,0.145c0.046,0.762,0.278,1.343,0.692,1.742
				c0.414,0.402,0.97,0.59,1.667,0.569c0.784-0.024,1.498-0.295,2.144-0.82c0.007,0.344,0.015,0.687,0.024,1.031
				c-0.603,0.45-1.401,0.69-2.406,0.721c-0.98,0.029-1.762-0.254-2.347-0.854c-0.586-0.6-0.903-1.464-0.949-2.592
				c-0.044-1.065,0.232-1.946,0.83-2.64c0.6-0.695,1.367-1.058,2.297-1.087c0.929-0.029,1.658,0.244,2.178,0.811
				c0.52,0.569,0.791,1.367,0.813,2.398C88.572,155.207,88.577,155.4,88.579,155.592z M87.405,154.689
				c-0.019-0.634-0.191-1.123-0.511-1.467c-0.319-0.344-0.757-0.508-1.312-0.491c-0.535,0.017-0.983,0.215-1.343,0.6
				c-0.361,0.382-0.571,0.876-0.636,1.476C84.872,154.759,86.14,154.72,87.405,154.689z"/>
		</g>
		<g>
			<path fill="#F5F5F5" d="M93.93,152.934c-0.198-0.145-0.484-0.218-0.859-0.215c-0.484,0.002-0.888,0.227-1.205,0.673
				c-0.319,0.445-0.474,1.05-0.465,1.813c0.015,1.164,0.029,2.328,0.044,3.492c-0.37,0.005-0.743,0.01-1.113,0.015
				c-0.036-2.285-0.073-4.569-0.109-6.851c0.38-0.005,0.757-0.012,1.137-0.017c0.005,0.469,0.012,0.941,0.017,1.411
				c0.01,0,0.019,0,0.027,0c0.155-0.484,0.397-0.862,0.728-1.135c0.329-0.273,0.702-0.411,1.113-0.414
				c0.295-0.002,0.523,0.029,0.68,0.09C93.925,152.174,93.927,152.554,93.93,152.934z"/>
		</g>
		<g>
			<path fill="#F5F5F5" d="M95.745,150.079c-0.206,0-0.38-0.068-0.523-0.201s-0.218-0.303-0.218-0.508
				c0-0.206,0.073-0.375,0.215-0.513c0.145-0.136,0.319-0.203,0.525-0.203c0.211,0,0.387,0.068,0.535,0.206
				c0.145,0.136,0.22,0.307,0.218,0.513c0,0.196-0.075,0.363-0.223,0.501C96.13,150.011,95.953,150.081,95.745,150.079z
				 M96.275,158.675c-0.37,0-0.743-0.002-1.113-0.002c0-2.285-0.002-4.569-0.002-6.854c0.38,0,0.757,0,1.137,0.002
				C96.289,154.106,96.282,156.39,96.275,158.675z"/>
		</g>
		<g>
			<path fill="#F5F5F5" d="M103.501,158.781c-0.37-0.01-0.743-0.019-1.113-0.027c0.007-0.356,0.017-0.714,0.024-1.07
				c-0.01,0-0.017,0-0.027,0c-0.503,0.811-1.225,1.205-2.164,1.191c-0.692-0.012-1.229-0.198-1.619-0.564
				c-0.39-0.365-0.581-0.847-0.576-1.445c0.01-1.28,0.789-2.021,2.343-2.207c0.704-0.085,1.411-0.167,2.115-0.247
				c0.027-1.164-0.445-1.759-1.418-1.776c-0.854-0.015-1.629,0.254-2.321,0.808c0.005-0.375,0.007-0.75,0.012-1.125
				c0.702-0.421,1.51-0.624,2.422-0.607c1.67,0.031,2.483,0.91,2.437,2.611C103.579,155.809,103.54,157.295,103.501,158.781z
				 M102.465,155.287c-0.566,0.063-1.133,0.128-1.699,0.194c-0.523,0.063-0.917,0.181-1.183,0.361
				c-0.269,0.177-0.404,0.496-0.409,0.956c-0.005,0.334,0.114,0.61,0.353,0.825c0.24,0.215,0.561,0.324,0.966,0.332
				c0.552,0.01,1.014-0.172,1.382-0.547c0.37-0.375,0.561-0.852,0.574-1.438C102.456,155.742,102.461,155.514,102.465,155.287z"/>
		</g>
		<g>
			<path fill="#F5F5F5" d="M116.192,158.972c-0.743,0.327-1.65,0.455-2.72,0.392c-1.382-0.08-2.464-0.576-3.257-1.493
				c-0.791-0.917-1.164-2.086-1.101-3.514c0.068-1.534,0.598-2.752,1.604-3.652c1.007-0.898,2.255-1.307,3.737-1.22
				c0.951,0.056,1.73,0.24,2.335,0.545c-0.027,0.399-0.053,0.796-0.08,1.196c-0.687-0.431-1.467-0.673-2.331-0.724
				c-1.147-0.068-2.098,0.249-2.846,0.949s-1.147,1.665-1.205,2.894c-0.056,1.166,0.23,2.113,0.845,2.839
				c0.62,0.726,1.452,1.118,2.507,1.181c0.978,0.058,1.839-0.102,2.585-0.482C116.24,158.246,116.216,158.609,116.192,158.972z"/>
		</g>
		<g>
			<path fill="#F5F5F5" d="M122.956,159.902c-0.37-0.034-0.741-0.065-1.111-0.097c0.031-0.356,0.061-0.711,0.092-1.067
				c-0.01,0-0.017-0.002-0.027-0.002c-0.554,0.777-1.297,1.125-2.236,1.053c-0.69-0.053-1.217-0.273-1.58-0.663
				c-0.365-0.39-0.528-0.881-0.484-1.479c0.09-1.278,0.915-1.968,2.478-2.055c0.709-0.041,1.421-0.077,2.13-0.114
				c0.099-1.159-0.336-1.784-1.307-1.861c-0.852-0.068-1.641,0.152-2.367,0.663c0.027-0.373,0.056-0.748,0.082-1.12
				c0.728-0.375,1.549-0.528,2.456-0.455c1.667,0.136,2.425,1.062,2.272,2.759C123.22,156.942,123.089,158.423,122.956,159.902z
				 M122.143,156.352c-0.571,0.027-1.14,0.056-1.709,0.087c-0.525,0.029-0.927,0.126-1.205,0.286
				c-0.276,0.16-0.433,0.469-0.467,0.927c-0.024,0.334,0.075,0.615,0.303,0.845c0.227,0.23,0.542,0.361,0.944,0.392
				c0.552,0.044,1.024-0.109,1.416-0.457c0.392-0.351,0.615-0.816,0.666-1.399C122.104,156.804,122.124,156.579,122.143,156.352z"/>
		</g>
		<g>
			<path fill="#F5F5F5" d="M130.79,160.7c-0.37-0.041-0.738-0.085-1.108-0.126c0.143-1.295,0.288-2.589,0.431-3.884
				c0.162-1.445-0.305-2.229-1.399-2.345c-0.564-0.061-1.053,0.097-1.464,0.472c-0.411,0.373-0.646,0.874-0.709,1.498
				c-0.128,1.297-0.257,2.592-0.387,3.889c-0.37-0.036-0.738-0.073-1.108-0.109c0.218-2.275,0.436-4.547,0.653-6.822
				c0.378,0.036,0.755,0.073,1.133,0.111c-0.039,0.378-0.075,0.755-0.114,1.133c0.01,0,0.019,0.002,0.027,0.002
				c0.62-0.808,1.438-1.159,2.452-1.053c0.774,0.082,1.338,0.39,1.694,0.917c0.353,0.528,0.479,1.246,0.373,2.154
				C131.107,157.925,130.95,159.311,130.79,160.7z"/>
		</g>
		<g>
			<path fill="#F5F5F5" d="M134.495,152.487c-0.203-0.024-0.368-0.114-0.496-0.264c-0.126-0.15-0.179-0.327-0.152-0.53
				c0.024-0.203,0.116-0.365,0.276-0.482c0.16-0.116,0.344-0.165,0.547-0.138c0.208,0.027,0.378,0.116,0.508,0.269
				c0.128,0.152,0.182,0.332,0.155,0.535c-0.024,0.196-0.119,0.351-0.281,0.472C134.887,152.465,134.703,152.511,134.495,152.487z
				 M133.984,161.083c-0.368-0.046-0.738-0.092-1.106-0.136c0.276-2.268,0.549-4.535,0.825-6.803c0.378,0.046,0.755,0.092,1.13,0.14
				C134.551,156.548,134.267,158.815,133.984,161.083z"/>
		</g>
		<g>
			<path fill="#F5F5F5" d="M141.949,162.181c-0.368-0.056-0.736-0.111-1.104-0.165c0.191-1.29,0.38-2.577,0.571-3.867
				c0.213-1.438-0.225-2.239-1.314-2.396c-0.564-0.08-1.058,0.061-1.481,0.419c-0.426,0.358-0.678,0.849-0.762,1.471
				c-0.177,1.29-0.351,2.582-0.528,3.872c-0.368-0.051-0.738-0.099-1.106-0.148c0.3-2.265,0.6-4.53,0.898-6.793
				c0.378,0.051,0.753,0.099,1.13,0.152c-0.051,0.375-0.102,0.753-0.152,1.128c0.01,0.002,0.019,0.002,0.027,0.005
				c0.646-0.787,1.479-1.108,2.49-0.963c0.772,0.111,1.326,0.438,1.66,0.978c0.336,0.54,0.436,1.261,0.298,2.166
				C142.365,159.42,142.157,160.8,141.949,162.181z"/>
		</g>
		<g>
			<path fill="#F5F5F5" d="M148.95,163.321c-0.368-0.063-0.733-0.128-1.101-0.191c0.061-0.351,0.121-0.704,0.182-1.055
				c-0.01-0.002-0.017-0.002-0.027-0.005c-0.62,0.726-1.392,1.012-2.323,0.859c-0.685-0.111-1.193-0.375-1.525-0.794
				c-0.332-0.419-0.453-0.922-0.361-1.513c0.196-1.266,1.079-1.883,2.648-1.839c0.712,0.019,1.425,0.041,2.137,0.065
				c0.196-1.147-0.186-1.805-1.152-1.965c-0.845-0.14-1.653,0.015-2.42,0.462c0.058-0.37,0.119-0.741,0.177-1.111
				c0.757-0.315,1.59-0.397,2.493-0.247c1.655,0.276,2.333,1.263,2.04,2.94C149.461,160.393,149.204,161.857,148.95,163.321z
				 M148.432,159.713c-0.571-0.022-1.142-0.039-1.716-0.058c-0.528-0.015-0.937,0.046-1.227,0.184
				c-0.29,0.136-0.472,0.431-0.545,0.886c-0.053,0.332,0.024,0.62,0.23,0.869c0.208,0.249,0.511,0.404,0.91,0.469
				c0.549,0.09,1.031-0.022,1.452-0.339c0.421-0.317,0.682-0.76,0.782-1.338C148.355,160.163,148.393,159.938,148.432,159.713z"/>
		</g>
	</g>
</g>
<g enable-background="new    ">
	<path fill="#FFFFFF" d="M88.784,93.141c0,0.86-0.255,1.29-0.761,1.29c-0.331,0-0.834-0.033-1.505-0.099
		c-0.674-0.066-1.186-0.099-1.539-0.099c-0.376,0-0.938,0.021-1.687,0.066c-0.752,0.045-1.314,0.066-1.687,0.066
		c-0.463,0-0.695-0.518-0.695-1.555c0-1.014,0.038-2.531,0.116-4.549c0.076-2.018,0.116-3.536,0.116-4.549
		c0-5.58-0.024-8.69-0.066-9.33c-0.177-2.271-0.64-3.838-1.39-4.698c-0.86-0.926-2.394-1.39-4.599-1.39
		c-1.39,0-2.957,0.662-4.698,1.985c-1.81,1.39-2.746,2.758-2.812,4.103c-0.09,1.721-0.132,4.864-0.132,9.43
		c0,1.08,0.043,2.701,0.132,4.864c0.087,2.162,0.132,3.784,0.132,4.864c0,0.596-0.199,0.893-0.596,0.893s-0.976-0.033-1.737-0.099
		c-0.761-0.066-1.34-0.099-1.737-0.099c-0.354,0-0.872,0.021-1.555,0.066c-0.685,0.045-1.203,0.066-1.555,0.066
		c-0.442,0-0.662-0.319-0.662-0.96c0-1.059,0.033-2.652,0.099-4.781s0.099-3.722,0.099-4.781V75.87c0-2.493-0.298-4.268-0.893-5.327
		c-0.839-1.501-2.439-2.25-4.798-2.25c-1.39,0-3.044,0.584-4.963,1.754c-2.118,1.279-3.176,2.569-3.176,3.871v9.661
		c0,1.104,0.009,2.746,0.033,4.93c0.021,2.184,0.033,3.817,0.033,4.897c0,0.64-0.255,0.96-0.761,0.96h-6.154
		c-0.442,0-0.662-0.298-0.662-0.893c0-1.787,0.009-4.471,0.033-8.057c0.021-3.585,0.033-6.27,0.033-8.057
		c0-4.037-0.43-8.061-1.29-12.077c-0.066-0.286-0.099-0.518-0.099-0.695c0-0.286,0.099-0.451,0.298-0.496
		c0.815-0.087,2.006-0.253,3.573-0.496c0.728-0.22,1.82-0.463,3.276-0.728l0.265-0.033c0.265,0,0.513,0.778,0.744,2.333
		c0.232,1.555,0.435,2.333,0.612,2.333l1.654-1.456c1.3-1.125,2.602-2.018,3.904-2.68c1.874-0.971,3.748-1.456,5.625-1.456
		c5.072,0,8.305,2.073,9.694,6.22c1.366-1.765,3.065-3.221,5.095-4.367c2.16-1.236,4.301-1.853,6.419-1.853
		c4.079,0,6.903,1.191,8.47,3.573c1.125,1.765,1.687,4.554,1.687,8.371c0,0.728-0.024,1.853-0.066,3.375
		c-0.045,1.522-0.066,2.647-0.066,3.375c0,1.39,0.033,3.479,0.099,6.27C88.751,89.662,88.784,91.751,88.784,93.141z"/>
	<path fill="#FFFFFF" d="M123.194,71.337c0,3.727-0.111,5.977-0.331,6.75c-0.288,0.993-3.018,5.322-8.189,12.987
		c-5.173,7.664-8.246,11.948-9.215,12.853c-0.884,0.794-3.729,1.191-8.536,1.191c-0.574,0-0.943-0.061-1.108-0.182
		c-0.165-0.121-0.541-0.922-1.125-2.399c-0.586-1.477-0.877-2.361-0.877-2.647c0-0.483,0.584-0.727,1.754-0.727
		c2.47,0,4.289-0.352,5.459-1.059c0.397-0.243,0.997-1.004,1.803-2.283c0.804-1.279,1.208-2.139,1.208-2.581
		c0-0.596-1.6-2.923-4.798-6.981c-3.375-4.301-5.261-7.026-5.658-8.172c-0.31-0.905-0.463-3.065-0.463-6.485
		c0-0.839,0.009-2.101,0.033-3.788c0.021-1.687,0.033-2.961,0.033-3.822c0-0.484,0.265-0.728,0.794-0.728
		c0.704,0,1.747,0.045,3.127,0.132c1.378,0.087,2.42,0.132,3.127,0.132c0.352,0,0.529,0.232,0.529,0.695
		c0,0.617-0.033,1.543-0.099,2.779c-0.066,1.236-0.099,2.162-0.099,2.779c0,2.692,0.087,4.698,0.265,6.022
		c0.132,0.839,1.333,2.923,3.606,6.253c2.271,3.33,3.673,4.996,4.202,4.996c0.373,0,1.565-1.638,3.573-4.913
		c2.006-3.276,3.077-5.299,3.209-6.071c0.175-1.104,0.265-3.11,0.265-6.022c0-0.64-0.066-1.583-0.199-2.829
		c-0.132-1.245-0.199-2.179-0.199-2.796c0-0.551,0.175-0.827,0.529-0.827c0.704,0,1.77-0.05,3.193-0.149
		c1.423-0.099,2.486-0.149,3.193-0.149C122.863,63.297,123.194,65.977,123.194,71.337z"/>
</g>
<g enable-background="new    ">
	<path fill="#FFFFFF" d="M58.657,116.055c0,2.418-0.767,4.516-2.298,6.301c-1.604,1.879-3.595,2.817-5.976,2.817
		c-1.484,0-2.782-0.461-3.895-1.383c-0.502-0.466-1.006-0.938-1.508-1.418c-0.072,0.038-0.119,0.132-0.143,0.288
		c-0.013,0.071-0.019,0.742-0.019,2.009l-0.018,5.062c0,0.383-0.137,0.574-0.412,0.574c-1.843,0-2.932-0.024-3.266-0.071
		c-0.277-0.038-0.414-0.191-0.414-0.468c0-1.531,0.012-3.829,0.037-6.892c0.024-3.063,0.035-5.36,0.035-6.891
		c0-2.812-0.18-5.45-0.539-7.915c-0.024-0.144-0.035-0.239-0.035-0.288c0-0.13,0.059-0.215,0.18-0.251
		c0.455-0.024,1.118-0.09,1.992-0.199c1.172-0.215,1.83-0.321,1.973-0.321c0.203,0,0.336,0.359,0.396,1.075
		c0.035,0.48,0.065,0.952,0.09,1.418c0,0.097,0.035,0.191,0.108,0.288c0.083-0.047,0.18-0.132,0.287-0.251
		c1.674-1.711,3.368-2.567,5.079-2.567c2.369,0,4.367,0.926,5.995,2.782C57.872,111.539,58.657,113.64,58.657,116.055z
		 M54.456,115.984c0-1.437-0.448-2.699-1.346-3.788c-0.945-1.16-2.123-1.739-3.536-1.739c-1.387,0-2.524,0.598-3.41,1.794
		c-0.813,1.078-1.219,2.333-1.219,3.77c0,1.461,0.418,2.727,1.256,3.805c0.921,1.16,2.094,1.742,3.518,1.742
		c1.364,0,2.512-0.605,3.446-1.813C54.026,118.629,54.456,117.371,54.456,115.984z"/>
	<path fill="#FFFFFF" d="M76.64,115.05c0,0.886-0.383,1.477-1.149,1.777c-0.515,0.191-4.219,0.544-11.11,1.059
		c0.156,1.052,0.736,1.95,1.741,2.692c0.957,0.707,1.986,1.059,3.088,1.059c1.889,0,3.625-0.61,5.204-1.832
		c0.191-0.154,0.383-0.31,0.574-0.466c0.096,0,0.158,0.012,0.189,0.035c0.03,0.024,0.254,0.44,0.672,1.248
		c0.419,0.808,0.629,1.241,0.629,1.302c0,0.071-0.096,0.208-0.287,0.411c-1.758,1.867-4.014,2.801-6.766,2.801
		c-2.776,0-4.989-0.83-6.641-2.486c-1.651-1.657-2.477-3.866-2.477-6.632c0-2.465,0.791-4.613,2.369-6.442
		c1.663-1.902,3.703-2.855,6.12-2.855c2.25,0,4.129,0.827,5.637,2.477C75.904,110.804,76.64,112.753,76.64,115.05z M72.368,113.956
		c0-0.993-0.392-1.874-1.176-2.64c-0.783-0.766-1.666-1.149-2.647-1.149c-1.101,0-2.08,0.444-2.935,1.328
		c-0.856,0.886-1.282,1.879-1.282,2.98c0,0.251,0.215,0.376,0.645,0.376c1.771,0,3.889-0.18,6.354-0.536
		C72.021,114.219,72.368,114.098,72.368,113.956z"/>
	<path fill="#FFFFFF" d="M89.418,107.835c0,1.316-0.09,2.512-0.269,3.59c-0.035,0.274-0.156,0.414-0.359,0.414
		c-0.251,0-0.631-0.028-1.139-0.083c-0.509-0.052-0.895-0.08-1.158-0.08c-1.508,0-2.471,0.425-2.889,1.274
		c-0.252,0.515-0.377,1.586-0.377,3.214v1.973c0,0.671,0.027,1.687,0.08,3.051c0.054,1.364,0.082,2.382,0.082,3.051
		c0,0.324-0.138,0.484-0.414,0.484c-0.371,0-0.932-0.005-1.686-0.017c-0.754-0.014-1.316-0.019-1.687-0.019
		c-0.275,0-0.412-0.149-0.412-0.449c0-0.969,0.014-2.43,0.045-4.379c0.03-1.95,0.045-3.415,0.045-4.396
		c0-2.957-0.277-5.332-0.826-7.125c-0.025-0.097-0.037-0.168-0.037-0.215c0-0.144,0.078-0.246,0.234-0.307
		c0.442-0.047,1.065-0.118,1.867-0.215c1.292-0.239,1.889-0.359,1.794-0.359c0.191,0,0.318,0.354,0.377,1.061
		c0.06,0.704,0.168,1.059,0.324,1.059c0.024,0,0.053-0.012,0.09-0.038c0.49-0.31,0.981-0.622,1.471-0.931
		c0.539-0.324,1.088-0.562,1.651-0.718c0.467-0.144,1.065-0.215,1.795-0.215C88.952,107.459,89.418,107.585,89.418,107.835z"/>
	<path fill="#FFFFFF" d="M101.659,107.835c0,1.316-0.09,2.512-0.269,3.59c-0.035,0.274-0.156,0.414-0.359,0.414
		c-0.251,0-0.631-0.028-1.139-0.083c-0.51-0.052-0.896-0.08-1.158-0.08c-1.508,0-2.471,0.425-2.889,1.274
		c-0.252,0.515-0.377,1.586-0.377,3.214v1.973c0,0.671,0.027,1.687,0.08,3.051c0.054,1.364,0.082,2.382,0.082,3.051
		c0,0.324-0.138,0.484-0.414,0.484c-0.371,0-0.932-0.005-1.686-0.017c-0.754-0.014-1.316-0.019-1.687-0.019
		c-0.275,0-0.412-0.149-0.412-0.449c0-0.969,0.014-2.43,0.045-4.379c0.03-1.95,0.045-3.415,0.045-4.396
		c0-2.957-0.277-5.332-0.826-7.125c-0.025-0.097-0.037-0.168-0.037-0.215c0-0.144,0.078-0.246,0.234-0.307
		c0.442-0.047,1.065-0.118,1.867-0.215c1.292-0.239,1.889-0.359,1.794-0.359c0.191,0,0.318,0.354,0.377,1.061
		c0.06,0.704,0.168,1.059,0.324,1.059c0.024,0,0.053-0.012,0.09-0.038c0.49-0.31,0.981-0.622,1.471-0.931
		c0.539-0.324,1.088-0.562,1.651-0.718c0.466-0.144,1.064-0.215,1.794-0.215C101.191,107.459,101.659,107.585,101.659,107.835z"/>
	<path fill="#FFFFFF" d="M119.892,115.949c0,2.5-0.82,4.637-2.458,6.407c-1.676,1.829-3.751,2.746-6.227,2.746
		c-2.491,0-4.571-0.91-6.246-2.73c-1.64-1.758-2.46-3.888-2.46-6.388s0.82-4.63,2.46-6.39c1.687-1.794,3.77-2.692,6.246-2.692
		c2.463,0,4.533,0.898,6.208,2.692C119.068,111.342,119.892,113.46,119.892,115.949z M116.106,115.984
		c0-1.461-0.449-2.704-1.347-3.734c-0.934-1.087-2.118-1.633-3.552-1.633c-1.437,0-2.628,0.539-3.573,1.617
		c-0.896,1.04-1.345,2.29-1.345,3.751c0,1.435,0.454,2.68,1.364,3.732c0.957,1.113,2.141,1.671,3.554,1.671
		c1.423,0,2.607-0.558,3.552-1.671C115.657,118.664,116.106,117.419,116.106,115.984z"/>
</g>
<g>
	<g>
		<path fill="#FDF9F4" d="M139.829,90.502c5.927,0.235,12.318,15.292,4.15,15.292c-1.021,0-2.58-1.827-4.726-1.718
			c-2.147,0.109-2.817,1.975-6.394,1.45C128.455,104.882,133.835,90.265,139.829,90.502z"/>
	</g>
	<g>
		
			<ellipse transform="matrix(-0.3553 -0.9347 0.9347 -0.3553 91.3676 239.9763)" fill="#FDF9F4" cx="128.438" cy="88.481" rx="6.212" ry="4.012"/>
	</g>
	<g>
		
			<ellipse transform="matrix(0.2799 -0.96 0.96 0.2799 22.9037 209.933)" fill="#FDF9F4" cx="151.393" cy="89.699" rx="6.299" ry="4.012"/>
	</g>
	<g>
		
			<ellipse transform="matrix(0.0987 0.9951 -0.9951 0.0987 201.1723 -63.5378)" fill="#FDF9F4" cx="135.662" cy="79.288" rx="7.139" ry="4.012"/>
	</g>
	<g>
		
			<ellipse transform="matrix(-0.2168 0.9762 -0.9762 -0.2168 254.1033 -44.9111)" fill="#FDF9F4" cx="145.067" cy="79.475" rx="6.97" ry="4.012"/>
	</g>
</g>
</svg>
