<?xml version="1.0" encoding="utf-8"?>
<!-- Generator: Adobe Illustrator 17.0.0, SVG Export Plug-In . SVG Version: 6.00 Build 0)  -->
<!DOCTYPE svg PUBLIC "-//W3C//DTD SVG 1.1//EN" "http://www.w3.org/Graphics/SVG/1.1/DTD/svg11.dtd">
<svg version="1.1" id="Capa_1" xmlns="http://www.w3.org/2000/svg" xmlns:xlink="http://www.w3.org/1999/xlink" x="0px" y="0px"
	 width="75px" height="85px" viewBox="0 0 75 85" enable-background="new 0 0 75 85" xml:space="preserve">
<g>
	<path fill="#F29100" d="M68.633,42.5c0,8.84-3.485,13.762-9.119,18.731c-5.634,4.725-13.417,9.497-22.015,12.403
		c-8.597,2.906-16.381,0.708-22.015-5.835c-5.633-6.3-9.117-16.945-9.117-25.299c0-8.84,3.485-13.762,9.119-18.731
		c5.634-4.725,13.417-9.497,22.015-12.403c8.597-2.906,16.381-0.708,22.015,5.835C65.149,23.501,68.633,34.146,68.633,42.5z"/>
</g>
<g>
	<g>
		<g>
			<g>
				<path fill="#2F53A0" d="M61.665,71.54c-16.501-2.614-33.311-2.614-49.812,0c0.554-1.28,1.126-2.558,1.714-3.832
					c-0.924-1.057-1.864-2.106-2.819-3.147c17.233-2.729,34.789-2.729,52.022,0c-0.815,1.063-1.618,2.132-2.407,3.207
					C60.811,69.024,61.245,70.282,61.665,71.54z"/>
			</g>
		</g>
	</g>
	<g>
		<g>
			<path fill="#F5F5F5" d="M15.027,67.727c0.084,0.492,0.168,0.985,0.252,1.477c-0.155,0.027-0.311,0.053-0.466,0.08
				c-0.227-1.302-0.455-2.604-0.682-3.906c0.375-0.066,0.751-0.129,1.127-0.192c0.439-0.073,0.796-0.025,1.069,0.141
				c0.273,0.166,0.438,0.435,0.495,0.807c0.058,0.372-0.028,0.696-0.255,0.975c-0.227,0.278-0.563,0.454-1.01,0.528
				C15.381,67.667,15.204,67.697,15.027,67.727z M14.683,65.71c0.091,0.534,0.182,1.069,0.274,1.603
				c0.165-0.028,0.33-0.056,0.496-0.084c0.327-0.055,0.564-0.167,0.713-0.339c0.149-0.173,0.203-0.391,0.161-0.655
				c-0.082-0.517-0.443-0.726-1.082-0.62C15.057,65.646,14.87,65.678,14.683,65.71z"/>
		</g>
		<g>
			<path fill="#F5F5F5" d="M19.845,67.195c-0.678,0.09-1.356,0.185-2.033,0.286c0.054,0.311,0.176,0.539,0.364,0.684
				c0.189,0.146,0.426,0.198,0.712,0.157c0.322-0.046,0.603-0.19,0.846-0.435c0.019,0.141,0.038,0.281,0.057,0.422
				c-0.227,0.213-0.546,0.347-0.957,0.406c-0.402,0.057-0.737-0.023-1.005-0.243c-0.268-0.22-0.439-0.56-0.509-1.021
				c-0.067-0.436,0.006-0.81,0.221-1.123s0.514-0.497,0.896-0.551c0.381-0.054,0.693,0.024,0.933,0.234
				c0.241,0.209,0.388,0.526,0.444,0.948C19.824,67.038,19.835,67.116,19.845,67.195z M19.321,66.878
				c-0.037-0.259-0.129-0.452-0.277-0.579c-0.148-0.127-0.335-0.174-0.562-0.142c-0.22,0.031-0.395,0.134-0.526,0.308
				c-0.131,0.174-0.196,0.386-0.195,0.635C18.281,67.023,18.801,66.949,19.321,66.878z"/>
		</g>
		<g>
			<path fill="#F5F5F5" d="M21.165,68.339c-0.152,0.019-0.305,0.038-0.457,0.057c-0.176-1.386-0.353-2.772-0.529-4.159
				c0.157-0.02,0.315-0.04,0.472-0.059C20.822,65.565,20.993,66.952,21.165,68.339z"/>
		</g>
		<g>
			<path fill="#F5F5F5" d="M24.403,67.98c-0.153,0.015-0.305,0.03-0.458,0.046c-0.015-0.149-0.03-0.297-0.045-0.446
				c-0.004,0-0.007,0.001-0.011,0.001c-0.156,0.361-0.432,0.561-0.83,0.605c-0.68,0.074-1.067-0.284-1.161-1.082
				c-0.065-0.56-0.131-1.121-0.196-1.681c0.155-0.018,0.31-0.036,0.465-0.053c0.061,0.537,0.122,1.073,0.182,1.61
				c0.068,0.594,0.332,0.864,0.795,0.814c0.224-0.024,0.4-0.124,0.528-0.302c0.128-0.177,0.179-0.397,0.153-0.659
				c-0.055-0.541-0.11-1.082-0.165-1.623c0.156-0.016,0.312-0.031,0.468-0.047C24.218,66.101,24.311,67.041,24.403,67.98z"/>
		</g>
		<g>
			<path fill="#F5F5F5" d="M27.865,68.993c-0.151,0.011-0.303,0.022-0.454,0.033c-0.045-0.595-0.089-1.189-0.134-1.784
				c-0.004,0-0.007,0.001-0.011,0.001c-0.173,0.383-0.484,0.591-0.937,0.629c-0.36,0.03-0.659-0.071-0.899-0.304
				c-0.24-0.233-0.382-0.567-0.422-1.002c-0.043-0.468,0.043-0.853,0.261-1.155c0.218-0.302,0.534-0.471,0.946-0.505
				c0.4-0.033,0.703,0.098,0.904,0.389c0.004,0,0.008-0.001,0.011-0.001c-0.01-0.131-0.02-0.261-0.029-0.392
				c0.156-0.012,0.313-0.023,0.469-0.034C27.668,66.244,27.767,67.619,27.865,68.993z M27.218,66.456
				c-0.01-0.137-0.021-0.274-0.031-0.411c-0.017-0.232-0.11-0.422-0.279-0.569c-0.169-0.148-0.374-0.212-0.616-0.192
				c-0.281,0.023-0.495,0.143-0.641,0.358c-0.146,0.216-0.202,0.506-0.169,0.871c0.029,0.325,0.129,0.573,0.301,0.744
				c0.172,0.171,0.379,0.246,0.624,0.226c0.269-0.022,0.476-0.129,0.623-0.323C27.175,66.967,27.238,66.732,27.218,66.456z"/>
		</g>
		<g>
			<path fill="#F5F5F5" d="M31.021,67.502c-0.153,0.007-0.306,0.014-0.459,0.022c-0.007-0.149-0.015-0.298-0.022-0.447
				c-0.004,0-0.007,0-0.011,0.001c-0.174,0.352-0.46,0.538-0.859,0.561c-0.682,0.039-1.05-0.339-1.102-1.141
				c-0.037-0.563-0.073-1.126-0.11-1.689c0.155-0.01,0.311-0.02,0.466-0.029c0.033,0.539,0.066,1.078,0.099,1.617
				c0.037,0.596,0.287,0.88,0.751,0.853c0.225-0.013,0.405-0.104,0.542-0.274c0.137-0.17,0.199-0.387,0.186-0.65
				c-0.027-0.543-0.054-1.086-0.081-1.63c0.157-0.008,0.313-0.015,0.47-0.023C30.933,65.617,30.977,66.559,31.021,67.502z"/>
		</g>
		<g>
			<path fill="#F5F5F5" d="M34.227,66.091c-0.682,0.014-1.365,0.034-2.047,0.06c0.019,0.315,0.115,0.555,0.286,0.72
				c0.171,0.166,0.401,0.244,0.689,0.235c0.324-0.01,0.619-0.122,0.886-0.339c0.003,0.142,0.006,0.284,0.01,0.426
				c-0.249,0.186-0.579,0.285-0.994,0.298c-0.405,0.012-0.728-0.105-0.97-0.353c-0.242-0.248-0.373-0.605-0.392-1.071
				c-0.018-0.44,0.096-0.804,0.343-1.091c0.248-0.287,0.565-0.437,0.949-0.449c0.384-0.012,0.685,0.101,0.9,0.335
				c0.215,0.235,0.327,0.565,0.336,0.991C34.224,65.932,34.226,66.012,34.227,66.091z M33.742,65.718
				c-0.008-0.262-0.079-0.464-0.211-0.606c-0.132-0.142-0.313-0.21-0.542-0.203c-0.221,0.007-0.406,0.089-0.555,0.248
				c-0.149,0.158-0.236,0.362-0.263,0.61C32.695,65.747,33.219,65.731,33.742,65.718z"/>
		</g>
		<g>
			<path fill="#F5F5F5" d="M36.438,64.993c-0.082-0.06-0.2-0.09-0.355-0.089c-0.2,0.001-0.367,0.094-0.498,0.278
				c-0.132,0.184-0.196,0.434-0.192,0.749c0.006,0.481,0.012,0.962,0.018,1.443c-0.153,0.002-0.307,0.004-0.46,0.006
				c-0.015-0.944-0.03-1.888-0.045-2.831c0.157-0.002,0.313-0.005,0.47-0.007c0.002,0.194,0.005,0.389,0.007,0.583
				c0.004,0,0.008,0,0.011,0c0.064-0.2,0.164-0.356,0.301-0.469c0.136-0.113,0.29-0.17,0.46-0.171
				c0.122-0.001,0.216,0.012,0.281,0.037C36.436,64.679,36.437,64.836,36.438,64.993z"/>
		</g>
		<g>
			<path fill="#F5F5F5" d="M37.188,63.813c-0.085,0-0.157-0.028-0.216-0.083s-0.09-0.125-0.09-0.21s0.03-0.155,0.089-0.212
				c0.06-0.056,0.132-0.084,0.217-0.084c0.087,0,0.16,0.028,0.221,0.085c0.06,0.056,0.091,0.127,0.09,0.212
				c0,0.081-0.031,0.15-0.092,0.207C37.347,63.785,37.274,63.814,37.188,63.813z M37.407,67.365c-0.153,0-0.307-0.001-0.46-0.001
				c0-0.944-0.001-1.888-0.001-2.832c0.157,0,0.313,0,0.47,0.001C37.413,65.477,37.41,66.421,37.407,67.365z"/>
		</g>
		<g>
			<path fill="#F5F5F5" d="M40.393,67.409c-0.153-0.004-0.307-0.008-0.46-0.011c0.003-0.147,0.007-0.295,0.01-0.442
				c-0.004,0-0.007,0-0.011,0c-0.208,0.335-0.506,0.498-0.894,0.492c-0.286-0.005-0.508-0.082-0.669-0.233s-0.24-0.35-0.238-0.597
				c0.004-0.529,0.326-0.835,0.968-0.912c0.291-0.035,0.583-0.069,0.874-0.102c0.011-0.481-0.184-0.727-0.586-0.734
				c-0.353-0.006-0.673,0.105-0.959,0.334c0.002-0.155,0.003-0.31,0.005-0.465c0.29-0.174,0.624-0.258,1.001-0.251
				c0.69,0.013,1.026,0.376,1.007,1.079C40.425,66.181,40.409,66.795,40.393,67.409z M39.965,65.965
				c-0.234,0.026-0.468,0.053-0.702,0.08c-0.216,0.026-0.379,0.075-0.489,0.149c-0.111,0.073-0.167,0.205-0.169,0.395
				c-0.002,0.138,0.047,0.252,0.146,0.341c0.099,0.089,0.232,0.134,0.399,0.137c0.228,0.004,0.419-0.071,0.571-0.226
				c0.153-0.155,0.232-0.352,0.237-0.594C39.961,66.153,39.963,66.059,39.965,65.965z"/>
		</g>
		<g>
			<path fill="#F5F5F5" d="M45.637,67.488c-0.307,0.135-0.682,0.188-1.124,0.162c-0.571-0.033-1.018-0.238-1.346-0.617
				c-0.327-0.379-0.481-0.862-0.455-1.452c0.028-0.634,0.247-1.137,0.663-1.509c0.416-0.371,0.932-0.54,1.544-0.504
				c0.393,0.023,0.715,0.099,0.965,0.225c-0.011,0.165-0.022,0.329-0.033,0.494c-0.284-0.178-0.606-0.278-0.963-0.299
				c-0.474-0.028-0.867,0.103-1.176,0.392s-0.474,0.688-0.498,1.196c-0.023,0.482,0.095,0.873,0.349,1.173
				c0.256,0.3,0.6,0.462,1.036,0.488c0.404,0.024,0.76-0.042,1.068-0.199C45.657,67.188,45.647,67.338,45.637,67.488z"/>
		</g>
		<g>
			<path fill="#F5F5F5" d="M48.432,67.872c-0.153-0.014-0.306-0.027-0.459-0.04c0.013-0.147,0.025-0.294,0.038-0.441
				c-0.004,0-0.007-0.001-0.011-0.001c-0.229,0.321-0.536,0.465-0.924,0.435c-0.285-0.022-0.503-0.113-0.653-0.274
				c-0.151-0.161-0.218-0.364-0.2-0.611c0.037-0.528,0.378-0.813,1.024-0.849c0.293-0.017,0.587-0.032,0.88-0.047
				c0.041-0.479-0.139-0.737-0.54-0.769c-0.352-0.028-0.678,0.063-0.978,0.274c0.011-0.154,0.023-0.309,0.034-0.463
				c0.301-0.155,0.64-0.218,1.015-0.188c0.689,0.056,1.002,0.439,0.939,1.14C48.541,66.649,48.487,67.261,48.432,67.872z
				 M48.096,66.405c-0.236,0.011-0.471,0.023-0.706,0.036c-0.217,0.012-0.383,0.052-0.498,0.118
				c-0.114,0.066-0.179,0.194-0.193,0.383c-0.01,0.138,0.031,0.254,0.125,0.349s0.224,0.149,0.39,0.162
				c0.228,0.018,0.423-0.045,0.585-0.189c0.162-0.145,0.254-0.337,0.275-0.578C48.08,66.592,48.088,66.499,48.096,66.405z"/>
		</g>
		<g>
			<path fill="#F5F5F5" d="M51.669,68.202c-0.153-0.017-0.305-0.035-0.458-0.052c0.059-0.535,0.119-1.07,0.178-1.605
				c0.067-0.597-0.126-0.921-0.578-0.969c-0.233-0.025-0.435,0.04-0.605,0.195c-0.17,0.154-0.267,0.361-0.293,0.619
				c-0.053,0.536-0.106,1.071-0.16,1.607c-0.153-0.015-0.305-0.03-0.458-0.045c0.09-0.94,0.18-1.879,0.27-2.819
				c0.156,0.015,0.312,0.03,0.468,0.046c-0.016,0.156-0.031,0.312-0.047,0.468c0.004,0,0.008,0.001,0.011,0.001
				c0.256-0.334,0.594-0.479,1.013-0.435c0.32,0.034,0.553,0.161,0.7,0.379c0.146,0.218,0.198,0.515,0.154,0.89
				C51.8,67.055,51.735,67.628,51.669,68.202z"/>
		</g>
		<g>
			<path fill="#F5F5F5" d="M53.2,64.808c-0.084-0.01-0.152-0.047-0.205-0.109c-0.052-0.062-0.074-0.135-0.063-0.219
				c0.01-0.084,0.048-0.151,0.114-0.199c0.066-0.048,0.142-0.068,0.226-0.057c0.086,0.011,0.156,0.048,0.21,0.111
				c0.053,0.063,0.075,0.137,0.064,0.221c-0.01,0.081-0.049,0.145-0.116,0.195C53.362,64.799,53.286,64.818,53.2,64.808z
				 M52.989,68.36c-0.152-0.019-0.305-0.038-0.457-0.056c0.114-0.937,0.227-1.874,0.341-2.811c0.156,0.019,0.312,0.038,0.467,0.058
				C53.223,66.486,53.106,67.423,52.989,68.36z"/>
		</g>
		<g>
			<path fill="#F5F5F5" d="M56.28,68.814c-0.152-0.023-0.304-0.046-0.456-0.068c0.079-0.533,0.157-1.065,0.236-1.598
				c0.088-0.594-0.093-0.925-0.543-0.99c-0.233-0.033-0.437,0.025-0.612,0.173c-0.176,0.148-0.28,0.351-0.315,0.608
				c-0.073,0.533-0.145,1.067-0.218,1.6c-0.152-0.021-0.305-0.041-0.457-0.061c0.124-0.936,0.248-1.872,0.371-2.807
				c0.156,0.021,0.311,0.041,0.467,0.063c-0.021,0.155-0.042,0.311-0.063,0.466c0.004,0.001,0.008,0.001,0.011,0.002
				c0.267-0.325,0.611-0.458,1.029-0.398c0.319,0.046,0.548,0.181,0.686,0.404c0.139,0.223,0.18,0.521,0.123,0.895
				C56.452,67.673,56.366,68.243,56.28,68.814z"/>
		</g>
		<g>
			<path fill="#F5F5F5" d="M59.173,69.285c-0.152-0.026-0.303-0.053-0.455-0.079c0.025-0.145,0.05-0.291,0.075-0.436
				c-0.004-0.001-0.007-0.001-0.011-0.002c-0.256,0.3-0.575,0.418-0.96,0.355c-0.283-0.046-0.493-0.155-0.63-0.328
				c-0.137-0.173-0.187-0.381-0.149-0.625c0.081-0.523,0.446-0.778,1.094-0.76c0.294,0.008,0.589,0.017,0.883,0.027
				c0.081-0.474-0.077-0.746-0.476-0.812c-0.349-0.058-0.683,0.006-1,0.191c0.024-0.153,0.049-0.306,0.073-0.459
				c0.313-0.13,0.657-0.164,1.03-0.102c0.684,0.114,0.964,0.522,0.843,1.215C59.384,68.075,59.278,68.68,59.173,69.285z
				 M58.959,67.794c-0.236-0.009-0.472-0.016-0.709-0.024c-0.218-0.006-0.387,0.019-0.507,0.076
				c-0.12,0.056-0.195,0.178-0.225,0.366c-0.022,0.137,0.01,0.256,0.095,0.359c0.086,0.103,0.211,0.167,0.376,0.194
				c0.227,0.037,0.426-0.009,0.6-0.14s0.282-0.314,0.323-0.553C58.927,67.98,58.943,67.887,58.959,67.794z"/>
		</g>
	</g>
</g>
<g enable-background="new    ">
	<path fill="#FFFFFF" d="M34.312,40.286c0,0.355-0.105,0.533-0.314,0.533c-0.137,0-0.345-0.014-0.622-0.041
		c-0.278-0.027-0.49-0.041-0.636-0.041c-0.155,0-0.388,0.009-0.697,0.027c-0.311,0.019-0.543,0.027-0.697,0.027
		c-0.191,0-0.287-0.214-0.287-0.643c0-0.419,0.016-1.046,0.048-1.88c0.031-0.834,0.048-1.461,0.048-1.88
		c0-2.306-0.01-3.591-0.027-3.855c-0.073-0.938-0.265-1.586-0.574-1.941c-0.355-0.383-0.989-0.574-1.9-0.574
		c-0.574,0-1.222,0.273-1.941,0.82c-0.748,0.574-1.135,1.14-1.162,1.695c-0.037,0.711-0.055,2.01-0.055,3.896
		c0,0.446,0.018,1.116,0.055,2.01c0.036,0.894,0.055,1.563,0.055,2.01c0,0.246-0.082,0.369-0.246,0.369s-0.403-0.014-0.718-0.041
		s-0.554-0.041-0.718-0.041c-0.146,0-0.36,0.009-0.643,0.027c-0.283,0.019-0.497,0.027-0.643,0.027
		c-0.183,0-0.273-0.132-0.273-0.396c0-0.438,0.014-1.096,0.041-1.976s0.041-1.538,0.041-1.976v-3.295
		c0-1.03-0.123-1.764-0.369-2.201c-0.347-0.62-1.008-0.93-1.982-0.93c-0.574,0-1.258,0.241-2.051,0.725
		c-0.875,0.528-1.313,1.062-1.313,1.6v3.992c0,0.456,0.004,1.135,0.014,2.037c0.009,0.902,0.014,1.577,0.014,2.023
		c0,0.265-0.105,0.396-0.314,0.396h-2.543c-0.183,0-0.273-0.123-0.273-0.369c0-0.738,0.004-1.848,0.014-3.329
		c0.009-1.481,0.014-2.591,0.014-3.329c0-1.668-0.178-3.331-0.533-4.99c-0.027-0.118-0.041-0.214-0.041-0.287
		c0-0.118,0.041-0.187,0.123-0.205c0.337-0.036,0.829-0.104,1.477-0.205c0.301-0.091,0.752-0.191,1.354-0.301l0.109-0.014
		c0.109,0,0.212,0.321,0.308,0.964s0.18,0.964,0.253,0.964l0.684-0.602c0.537-0.465,1.075-0.834,1.613-1.107
		c0.774-0.401,1.549-0.602,2.324-0.602c2.096,0,3.432,0.856,4.006,2.57c0.564-0.729,1.267-1.331,2.105-1.805
		c0.893-0.511,1.777-0.766,2.652-0.766c1.686,0,2.853,0.492,3.5,1.477c0.465,0.729,0.697,1.882,0.697,3.459
		c0,0.301-0.01,0.766-0.027,1.395c-0.019,0.629-0.027,1.094-0.027,1.395c0,0.574,0.014,1.438,0.041,2.591
		S34.312,39.711,34.312,40.286z"/>
	<path fill="#FFFFFF" d="M48.53,31.276c0,1.54-0.046,2.47-0.137,2.789c-0.119,0.41-1.247,2.199-3.384,5.366
		c-2.138,3.167-3.407,4.937-3.808,5.311c-0.365,0.328-1.541,0.492-3.527,0.492c-0.237,0-0.39-0.025-0.458-0.075
		s-0.224-0.381-0.465-0.991c-0.242-0.61-0.362-0.976-0.362-1.094c0-0.2,0.241-0.3,0.725-0.3c1.021,0,1.772-0.146,2.256-0.438
		c0.164-0.101,0.412-0.415,0.745-0.943c0.332-0.528,0.499-0.884,0.499-1.066c0-0.246-0.661-1.208-1.982-2.885
		c-1.395-1.777-2.174-2.903-2.338-3.377c-0.128-0.374-0.191-1.267-0.191-2.68c0-0.347,0.004-0.868,0.014-1.565
		c0.009-0.697,0.014-1.224,0.014-1.579c0-0.2,0.109-0.301,0.328-0.301c0.291,0,0.722,0.019,1.292,0.055
		c0.569,0.036,1,0.055,1.292,0.055c0.146,0,0.219,0.096,0.219,0.287c0,0.255-0.014,0.638-0.041,1.148s-0.041,0.894-0.041,1.148
		c0,1.112,0.036,1.941,0.109,2.488c0.055,0.347,0.551,1.208,1.49,2.584c0.938,1.376,1.518,2.064,1.736,2.064
		c0.154,0,0.646-0.677,1.477-2.03c0.829-1.354,1.271-2.189,1.326-2.509c0.072-0.456,0.109-1.285,0.109-2.488
		c0-0.265-0.027-0.654-0.082-1.169s-0.082-0.9-0.082-1.155c0-0.228,0.072-0.342,0.219-0.342c0.291,0,0.731-0.021,1.319-0.062
		s1.027-0.062,1.319-0.062C48.394,27.954,48.53,29.061,48.53,31.276z"/>
</g>
<g enable-background="new    ">
	<path fill="#FFFFFF" d="M21.863,49.754c0,0.999-0.317,1.866-0.95,2.604c-0.663,0.776-1.485,1.164-2.469,1.164
		c-0.613,0-1.149-0.19-1.609-0.571c-0.208-0.192-0.416-0.388-0.623-0.586c-0.03,0.016-0.049,0.055-0.059,0.119
		c-0.005,0.029-0.008,0.307-0.008,0.83l-0.007,2.092c0,0.158-0.057,0.237-0.17,0.237c-0.762,0-1.211-0.01-1.35-0.029
		c-0.114-0.016-0.171-0.079-0.171-0.193c0-0.633,0.005-1.582,0.015-2.848c0.01-1.266,0.015-2.215,0.015-2.848
		c0-1.162-0.074-2.252-0.223-3.271c-0.01-0.06-0.015-0.099-0.015-0.119c0-0.054,0.024-0.089,0.074-0.104
		c0.188-0.01,0.462-0.037,0.823-0.082c0.484-0.089,0.756-0.133,0.815-0.133c0.084,0,0.139,0.148,0.164,0.444
		c0.015,0.198,0.027,0.394,0.037,0.586c0,0.04,0.015,0.079,0.044,0.119c0.034-0.02,0.074-0.055,0.119-0.104
		c0.692-0.707,1.392-1.061,2.099-1.061c0.979,0,1.805,0.383,2.477,1.149C21.539,47.888,21.863,48.756,21.863,49.754z M20.127,49.725
		c0-0.594-0.185-1.115-0.556-1.565c-0.391-0.479-0.877-0.719-1.461-0.719c-0.573,0-1.043,0.247-1.409,0.741
		c-0.336,0.445-0.504,0.964-0.504,1.558c0,0.604,0.173,1.127,0.519,1.572c0.38,0.479,0.865,0.72,1.454,0.72
		c0.563,0,1.038-0.25,1.424-0.749C19.949,50.817,20.127,50.298,20.127,49.725z"/>
	<path fill="#FFFFFF" d="M29.293,49.339c0,0.366-0.158,0.61-0.475,0.734c-0.213,0.079-1.743,0.225-4.591,0.438
		c0.064,0.435,0.304,0.806,0.719,1.112c0.396,0.292,0.821,0.438,1.276,0.438c0.781,0,1.498-0.252,2.15-0.757
		c0.079-0.063,0.158-0.128,0.237-0.192c0.04,0,0.065,0.005,0.078,0.015c0.012,0.01,0.105,0.182,0.278,0.516
		c0.173,0.334,0.26,0.513,0.26,0.538c0,0.029-0.04,0.086-0.119,0.17c-0.727,0.771-1.659,1.157-2.796,1.157
		c-1.147,0-2.062-0.343-2.744-1.027c-0.682-0.685-1.023-1.598-1.023-2.74c0-1.019,0.327-1.906,0.979-2.662
		c0.687-0.786,1.53-1.18,2.529-1.18c0.93,0,1.706,0.342,2.329,1.023C28.989,47.584,29.293,48.39,29.293,49.339z M27.528,48.887
		c0-0.41-0.162-0.774-0.486-1.091s-0.688-0.475-1.094-0.475c-0.455,0-0.859,0.184-1.213,0.549c-0.354,0.366-0.53,0.776-0.53,1.231
		c0,0.104,0.089,0.155,0.267,0.155c0.732,0,1.607-0.074,2.625-0.222C27.385,48.995,27.528,48.945,27.528,48.887z"/>
	<path fill="#FFFFFF" d="M34.574,46.357c0,0.544-0.037,1.038-0.111,1.483c-0.015,0.113-0.064,0.171-0.148,0.171
		c-0.104,0-0.261-0.012-0.471-0.034c-0.21-0.021-0.37-0.033-0.479-0.033c-0.623,0-1.021,0.176-1.194,0.526
		c-0.104,0.213-0.156,0.655-0.156,1.328v0.815c0,0.277,0.011,0.697,0.033,1.261c0.022,0.563,0.034,0.984,0.034,1.261
		c0,0.134-0.057,0.2-0.171,0.2c-0.153,0-0.385-0.002-0.697-0.007c-0.312-0.006-0.544-0.008-0.697-0.008
		c-0.114,0-0.17-0.062-0.17-0.186c0-0.4,0.006-1.004,0.019-1.81c0.012-0.806,0.019-1.411,0.019-1.816
		c0-1.222-0.114-2.203-0.341-2.944c-0.01-0.04-0.015-0.069-0.015-0.089c0-0.06,0.032-0.102,0.097-0.127
		c0.183-0.02,0.44-0.049,0.771-0.089c0.534-0.099,0.781-0.148,0.741-0.148c0.079,0,0.131,0.146,0.156,0.438
		c0.025,0.291,0.069,0.438,0.134,0.438c0.01,0,0.022-0.005,0.037-0.016c0.203-0.128,0.405-0.257,0.608-0.385
		c0.223-0.134,0.45-0.232,0.682-0.297c0.193-0.06,0.44-0.089,0.742-0.089C34.381,46.202,34.574,46.254,34.574,46.357z"/>
	<path fill="#FFFFFF" d="M39.632,46.357c0,0.544-0.037,1.038-0.111,1.483c-0.015,0.113-0.064,0.171-0.148,0.171
		c-0.104,0-0.261-0.012-0.471-0.034c-0.211-0.021-0.37-0.033-0.479-0.033c-0.623,0-1.021,0.176-1.194,0.526
		c-0.104,0.213-0.156,0.655-0.156,1.328v0.815c0,0.277,0.011,0.697,0.033,1.261c0.022,0.563,0.034,0.984,0.034,1.261
		c0,0.134-0.057,0.2-0.171,0.2c-0.153,0-0.385-0.002-0.697-0.007c-0.312-0.006-0.544-0.008-0.697-0.008
		c-0.114,0-0.17-0.062-0.17-0.186c0-0.4,0.006-1.004,0.019-1.81c0.012-0.806,0.019-1.411,0.019-1.816
		c0-1.222-0.114-2.203-0.341-2.944c-0.01-0.04-0.015-0.069-0.015-0.089c0-0.06,0.032-0.102,0.097-0.127
		c0.183-0.02,0.44-0.049,0.771-0.089c0.534-0.099,0.781-0.148,0.741-0.148c0.079,0,0.131,0.146,0.156,0.438
		c0.025,0.291,0.069,0.438,0.134,0.438c0.01,0,0.022-0.005,0.037-0.016c0.203-0.128,0.405-0.257,0.608-0.385
		c0.223-0.134,0.45-0.232,0.682-0.297c0.192-0.06,0.439-0.089,0.741-0.089C39.438,46.202,39.632,46.254,39.632,46.357z"/>
	<path fill="#FFFFFF" d="M47.166,49.71c0,1.033-0.339,1.916-1.016,2.647c-0.692,0.756-1.55,1.135-2.573,1.135
		c-1.029,0-1.889-0.376-2.581-1.128c-0.678-0.727-1.017-1.606-1.017-2.64s0.339-1.913,1.017-2.641
		c0.697-0.741,1.558-1.112,2.581-1.112c1.018,0,1.873,0.371,2.565,1.112C46.825,47.807,47.166,48.682,47.166,49.71z M45.602,49.725
		c0-0.604-0.186-1.117-0.557-1.543c-0.386-0.449-0.875-0.675-1.468-0.675c-0.594,0-1.086,0.223-1.477,0.668
		c-0.37,0.43-0.556,0.946-0.556,1.55c0,0.593,0.188,1.107,0.563,1.542c0.396,0.46,0.885,0.69,1.469,0.69
		c0.588,0,1.077-0.23,1.468-0.69C45.416,50.832,45.602,50.317,45.602,49.725z"/>
</g>
<g>
	<g>
		<path fill="#FDF9F4" d="M55.404,39.195c2.449,0.097,5.09,6.319,1.715,6.319c-0.422,0-1.066-0.755-1.953-0.71
			s-1.164,0.816-2.642,0.599C50.704,45.137,52.927,39.097,55.404,39.195z"/>
	</g>
	<g>
		
			<ellipse transform="matrix(-0.3553 -0.9347 0.9347 -0.3553 32.8541 99.3788)" fill="#FDF9F4" cx="50.697" cy="38.36" rx="2.567" ry="1.658"/>
	</g>
	<g>
		
			<ellipse transform="matrix(0.2799 -0.96 0.96 0.2799 6.0272 85.762)" fill="#FDF9F4" cx="60.183" cy="38.863" rx="2.603" ry="1.658"/>
	</g>
	<g>
		
			<ellipse transform="matrix(0.0987 0.9951 -0.9951 0.0987 82.7761 -22.2702)" fill="#FDF9F4" cx="53.682" cy="34.561" rx="2.95" ry="1.658"/>
	</g>
	<g>
		
			<ellipse transform="matrix(-0.2168 0.9762 -0.9762 -0.2168 103.8645 -14.0508)" fill="#FDF9F4" cx="57.569" cy="34.639" rx="2.88" ry="1.658"/>
	</g>
</g>
</svg>
