<?xml version="1.0" encoding="utf-8"?>
<!-- Generator: Adobe Illustrator 17.0.0, SVG Export Plug-In . SVG Version: 6.00 Build 0)  -->
<!DOCTYPE svg PUBLIC "-//W3C//DTD SVG 1.1//EN" "http://www.w3.org/Graphics/SVG/1.1/DTD/svg11.dtd">
<svg version="1.1" id="Capa_1" xmlns="http://www.w3.org/2000/svg" xmlns:xlink="http://www.w3.org/1999/xlink" x="0px" y="0px"
	 width="75px" height="85px" viewBox="0 0 75 85" enable-background="new 0 0 75 85" xml:space="preserve">
<g>
	<path fill="#F29100" d="M68.633,42.5c0,8.84-3.485,13.762-9.119,18.731c-5.634,4.725-13.417,9.497-22.015,12.403
		c-8.597,2.906-16.381,0.708-22.015-5.835C9.851,61.499,6.367,50.854,6.367,42.5c0-8.84,3.485-13.762,9.119-18.731
		c5.634-4.725,13.417-9.497,22.015-12.403c8.597-2.906,16.381-0.708,22.015,5.835C65.149,23.501,68.633,34.146,68.633,42.5z"/>
	<g>
		<g>
			<g>
				<path fill="#2F53A0" d="M61.665,71.54c-16.501-2.614-33.311-2.614-49.812,0c0.554-1.28,1.126-2.558,1.714-3.832
					c-0.924-1.057-1.864-2.106-2.819-3.147c17.233-2.729,34.789-2.729,52.022,0c-0.815,1.063-1.618,2.132-2.407,3.207
					C60.811,69.024,61.245,70.282,61.665,71.54z"/>
			</g>
		</g>
		<g>
			<path fill="#F5F5F5" d="M15.027,67.727c0.084,0.492,0.168,0.985,0.252,1.477c-0.155,0.027-0.311,0.053-0.466,0.08
				c-0.227-1.302-0.455-2.604-0.682-3.906c0.375-0.066,0.751-0.129,1.127-0.192c0.439-0.073,0.796-0.025,1.069,0.141
				c0.273,0.166,0.438,0.435,0.495,0.807c0.058,0.372-0.028,0.696-0.255,0.975c-0.227,0.278-0.563,0.454-1.01,0.528
				C15.381,67.667,15.204,67.697,15.027,67.727z M14.683,65.71c0.091,0.534,0.182,1.069,0.274,1.603
				c0.165-0.028,0.33-0.056,0.496-0.084c0.327-0.055,0.564-0.167,0.713-0.339c0.149-0.173,0.203-0.391,0.161-0.655
				c-0.082-0.517-0.443-0.726-1.082-0.62C15.057,65.646,14.87,65.678,14.683,65.71z"/>
			<path fill="#F5F5F5" d="M19.845,67.195c-0.678,0.09-1.356,0.185-2.033,0.286c0.054,0.311,0.176,0.539,0.364,0.684
				c0.189,0.146,0.426,0.198,0.712,0.157c0.322-0.046,0.603-0.19,0.846-0.435c0.019,0.141,0.038,0.281,0.057,0.422
				c-0.227,0.213-0.546,0.347-0.957,0.406c-0.402,0.057-0.737-0.023-1.005-0.243c-0.268-0.22-0.439-0.56-0.509-1.021
				c-0.067-0.436,0.006-0.81,0.221-1.123c0.215-0.313,0.514-0.497,0.896-0.551c0.381-0.054,0.693,0.024,0.933,0.234
				c0.241,0.209,0.388,0.526,0.444,0.948C19.824,67.038,19.835,67.116,19.845,67.195z M19.321,66.878
				c-0.037-0.259-0.129-0.452-0.277-0.579c-0.148-0.127-0.335-0.174-0.562-0.142c-0.22,0.031-0.395,0.134-0.526,0.308
				c-0.131,0.174-0.196,0.386-0.195,0.635C18.281,67.023,18.801,66.949,19.321,66.878z"/>
			<path fill="#F5F5F5" d="M21.165,68.339c-0.152,0.019-0.305,0.038-0.457,0.057c-0.176-1.386-0.353-2.772-0.529-4.159
				c0.157-0.02,0.315-0.04,0.472-0.059C20.822,65.565,20.993,66.952,21.165,68.339z"/>
			<path fill="#F5F5F5" d="M24.403,67.98c-0.153,0.015-0.305,0.03-0.458,0.046c-0.015-0.149-0.03-0.297-0.045-0.446
				c-0.004,0-0.007,0.001-0.011,0.001c-0.156,0.361-0.432,0.561-0.83,0.605c-0.68,0.074-1.067-0.284-1.161-1.082
				c-0.065-0.56-0.131-1.121-0.196-1.681c0.155-0.018,0.31-0.036,0.465-0.053c0.061,0.537,0.122,1.073,0.182,1.61
				c0.068,0.594,0.332,0.864,0.795,0.814c0.224-0.024,0.4-0.124,0.528-0.302c0.128-0.177,0.179-0.397,0.153-0.659
				c-0.055-0.541-0.11-1.082-0.165-1.623c0.156-0.016,0.312-0.031,0.468-0.047C24.218,66.101,24.311,67.041,24.403,67.98z"/>
			<path fill="#F5F5F5" d="M27.865,68.993c-0.151,0.011-0.303,0.022-0.454,0.033c-0.045-0.595-0.089-1.189-0.134-1.784
				c-0.004,0-0.007,0.001-0.011,0.001c-0.173,0.383-0.484,0.591-0.937,0.629c-0.36,0.03-0.659-0.071-0.899-0.304
				c-0.24-0.233-0.382-0.567-0.422-1.002c-0.043-0.468,0.043-0.853,0.261-1.155c0.218-0.302,0.534-0.471,0.946-0.505
				c0.4-0.033,0.703,0.098,0.904,0.389c0.004,0,0.008-0.001,0.011-0.001c-0.01-0.131-0.02-0.261-0.029-0.392
				c0.156-0.012,0.313-0.023,0.469-0.034C27.668,66.244,27.767,67.619,27.865,68.993z M27.218,66.456
				c-0.01-0.137-0.021-0.274-0.031-0.411c-0.017-0.232-0.11-0.422-0.279-0.569c-0.169-0.148-0.374-0.212-0.616-0.192
				c-0.281,0.023-0.495,0.143-0.641,0.358c-0.146,0.216-0.202,0.506-0.169,0.871c0.029,0.325,0.129,0.573,0.301,0.744
				c0.172,0.171,0.379,0.246,0.624,0.226c0.269-0.022,0.476-0.129,0.623-0.323C27.175,66.967,27.238,66.732,27.218,66.456z"/>
			<path fill="#F5F5F5" d="M31.021,67.502c-0.153,0.007-0.306,0.014-0.459,0.022c-0.007-0.149-0.015-0.298-0.022-0.447
				c-0.004,0-0.007,0-0.011,0.001c-0.174,0.352-0.46,0.538-0.859,0.561c-0.682,0.039-1.05-0.339-1.102-1.141
				c-0.037-0.563-0.073-1.126-0.11-1.689c0.155-0.01,0.311-0.02,0.466-0.029c0.033,0.539,0.066,1.078,0.099,1.617
				c0.037,0.596,0.287,0.88,0.751,0.853c0.225-0.013,0.405-0.104,0.542-0.274c0.137-0.17,0.199-0.387,0.186-0.65
				c-0.027-0.543-0.054-1.086-0.081-1.63c0.157-0.008,0.313-0.015,0.47-0.023C30.933,65.617,30.977,66.559,31.021,67.502z"/>
			<path fill="#F5F5F5" d="M34.227,66.091c-0.682,0.014-1.365,0.034-2.047,0.06c0.019,0.315,0.115,0.555,0.286,0.72
				c0.171,0.166,0.401,0.244,0.689,0.235c0.324-0.01,0.619-0.122,0.886-0.339c0.003,0.142,0.006,0.284,0.01,0.426
				c-0.249,0.186-0.579,0.285-0.994,0.298c-0.405,0.012-0.728-0.105-0.97-0.353c-0.242-0.248-0.373-0.605-0.392-1.071
				c-0.018-0.44,0.096-0.804,0.343-1.091c0.248-0.287,0.565-0.437,0.949-0.449c0.384-0.012,0.685,0.101,0.9,0.335
				c0.215,0.235,0.327,0.565,0.336,0.991C34.224,65.932,34.226,66.012,34.227,66.091z M33.742,65.718
				c-0.008-0.262-0.079-0.464-0.211-0.606c-0.132-0.142-0.313-0.21-0.542-0.203c-0.221,0.007-0.406,0.089-0.555,0.248
				c-0.149,0.158-0.236,0.362-0.263,0.61C32.695,65.747,33.219,65.731,33.742,65.718z"/>
			<path fill="#F5F5F5" d="M36.438,64.993c-0.082-0.06-0.2-0.09-0.355-0.089c-0.2,0.001-0.367,0.094-0.498,0.278
				c-0.132,0.184-0.196,0.434-0.192,0.749c0.006,0.481,0.012,0.962,0.018,1.443c-0.153,0.002-0.307,0.004-0.46,0.006
				c-0.015-0.944-0.03-1.888-0.045-2.831c0.157-0.002,0.313-0.005,0.47-0.007c0.002,0.194,0.005,0.389,0.007,0.583
				c0.004,0,0.008,0,0.011,0c0.064-0.2,0.164-0.356,0.301-0.469c0.136-0.113,0.29-0.17,0.46-0.171
				c0.122-0.001,0.216,0.012,0.281,0.037C36.436,64.679,36.437,64.836,36.438,64.993z"/>
			<path fill="#F5F5F5" d="M37.188,63.813c-0.085,0-0.157-0.028-0.216-0.083c-0.059-0.055-0.09-0.125-0.09-0.21
				c0-0.085,0.03-0.155,0.089-0.212c0.06-0.056,0.132-0.084,0.217-0.084c0.087,0,0.16,0.028,0.221,0.085
				c0.06,0.056,0.091,0.127,0.09,0.212c0,0.081-0.031,0.15-0.092,0.207C37.347,63.785,37.274,63.814,37.188,63.813z M37.407,67.365
				c-0.153,0-0.307-0.001-0.46-0.001c0-0.944-0.001-1.888-0.001-2.832c0.157,0,0.313,0,0.47,0.001
				C37.413,65.477,37.41,66.421,37.407,67.365z"/>
			<path fill="#F5F5F5" d="M40.393,67.409c-0.153-0.004-0.307-0.008-0.46-0.011c0.003-0.147,0.007-0.295,0.01-0.442
				c-0.004,0-0.007,0-0.011,0c-0.208,0.335-0.506,0.498-0.894,0.492c-0.286-0.005-0.508-0.082-0.669-0.233
				c-0.161-0.151-0.24-0.35-0.238-0.597c0.004-0.529,0.326-0.835,0.968-0.912c0.291-0.035,0.583-0.069,0.874-0.102
				c0.011-0.481-0.184-0.727-0.586-0.734c-0.353-0.006-0.673,0.105-0.959,0.334c0.002-0.155,0.003-0.31,0.005-0.465
				c0.29-0.174,0.624-0.258,1.001-0.251c0.69,0.013,1.026,0.376,1.007,1.079C40.425,66.181,40.409,66.795,40.393,67.409z
				 M39.965,65.965c-0.234,0.026-0.468,0.053-0.702,0.08c-0.216,0.026-0.379,0.075-0.489,0.149
				c-0.111,0.073-0.167,0.205-0.169,0.395c-0.002,0.138,0.047,0.252,0.146,0.341c0.099,0.089,0.232,0.134,0.399,0.137
				c0.228,0.004,0.419-0.071,0.571-0.226c0.153-0.155,0.232-0.352,0.237-0.594C39.961,66.153,39.963,66.059,39.965,65.965z"/>
			<path fill="#F5F5F5" d="M45.637,67.488c-0.307,0.135-0.682,0.188-1.124,0.162c-0.571-0.033-1.018-0.238-1.346-0.617
				c-0.327-0.379-0.481-0.862-0.455-1.452c0.028-0.634,0.247-1.137,0.663-1.509c0.416-0.371,0.932-0.54,1.544-0.504
				c0.393,0.023,0.715,0.099,0.965,0.225c-0.011,0.165-0.022,0.329-0.033,0.494c-0.284-0.178-0.606-0.278-0.963-0.299
				c-0.474-0.028-0.867,0.103-1.176,0.392c-0.309,0.289-0.474,0.688-0.498,1.196c-0.023,0.482,0.095,0.873,0.349,1.173
				c0.256,0.3,0.6,0.462,1.036,0.488c0.404,0.024,0.76-0.042,1.068-0.199C45.657,67.188,45.647,67.338,45.637,67.488z"/>
			<path fill="#F5F5F5" d="M48.432,67.872c-0.153-0.014-0.306-0.027-0.459-0.04c0.013-0.147,0.025-0.294,0.038-0.441
				c-0.004,0-0.007-0.001-0.011-0.001c-0.229,0.321-0.536,0.465-0.924,0.435c-0.285-0.022-0.503-0.113-0.653-0.274
				c-0.151-0.161-0.218-0.364-0.2-0.611c0.037-0.528,0.378-0.813,1.024-0.849c0.293-0.017,0.587-0.032,0.88-0.047
				c0.041-0.479-0.139-0.737-0.54-0.769c-0.352-0.028-0.678,0.063-0.978,0.274c0.011-0.154,0.023-0.309,0.034-0.463
				c0.301-0.155,0.64-0.218,1.015-0.188c0.689,0.056,1.002,0.439,0.939,1.14C48.541,66.649,48.487,67.261,48.432,67.872z
				 M48.096,66.405c-0.236,0.011-0.471,0.023-0.706,0.036c-0.217,0.012-0.383,0.052-0.498,0.118
				c-0.114,0.066-0.179,0.194-0.193,0.383c-0.01,0.138,0.031,0.254,0.125,0.349c0.094,0.095,0.224,0.149,0.39,0.162
				c0.228,0.018,0.423-0.045,0.585-0.189c0.162-0.145,0.254-0.337,0.275-0.578C48.08,66.592,48.088,66.499,48.096,66.405z"/>
			<path fill="#F5F5F5" d="M51.669,68.202c-0.153-0.017-0.305-0.035-0.458-0.052c0.059-0.535,0.119-1.07,0.178-1.605
				c0.067-0.597-0.126-0.921-0.578-0.969c-0.233-0.025-0.435,0.04-0.605,0.195c-0.17,0.154-0.267,0.361-0.293,0.619
				c-0.053,0.536-0.106,1.071-0.16,1.607c-0.153-0.015-0.305-0.03-0.458-0.045c0.09-0.94,0.18-1.879,0.27-2.819
				c0.156,0.015,0.312,0.03,0.468,0.046c-0.016,0.156-0.031,0.312-0.047,0.468c0.004,0,0.008,0.001,0.011,0.001
				c0.256-0.334,0.594-0.479,1.013-0.435c0.32,0.034,0.553,0.161,0.7,0.379c0.146,0.218,0.198,0.515,0.154,0.89
				C51.8,67.055,51.735,67.628,51.669,68.202z"/>
			<path fill="#F5F5F5" d="M53.2,64.808c-0.084-0.01-0.152-0.047-0.205-0.109c-0.052-0.062-0.074-0.135-0.063-0.219
				c0.01-0.084,0.048-0.151,0.114-0.199c0.066-0.048,0.142-0.068,0.226-0.057c0.086,0.011,0.156,0.048,0.21,0.111
				c0.053,0.063,0.075,0.137,0.064,0.221c-0.01,0.081-0.049,0.145-0.116,0.195C53.362,64.799,53.286,64.818,53.2,64.808z
				 M52.989,68.36c-0.152-0.019-0.305-0.038-0.457-0.056c0.114-0.937,0.227-1.874,0.341-2.811c0.156,0.019,0.312,0.038,0.467,0.058
				C53.223,66.486,53.106,67.423,52.989,68.36z"/>
			<path fill="#F5F5F5" d="M56.28,68.814c-0.152-0.023-0.304-0.046-0.456-0.068c0.079-0.533,0.157-1.065,0.236-1.598
				c0.088-0.594-0.093-0.925-0.543-0.99c-0.233-0.033-0.437,0.025-0.612,0.173c-0.176,0.148-0.28,0.351-0.315,0.608
				c-0.073,0.533-0.145,1.067-0.218,1.6c-0.152-0.021-0.305-0.041-0.457-0.061c0.124-0.936,0.248-1.872,0.371-2.807
				c0.156,0.021,0.311,0.041,0.467,0.063c-0.021,0.155-0.042,0.311-0.063,0.466c0.004,0.001,0.008,0.001,0.011,0.002
				c0.267-0.325,0.611-0.458,1.029-0.398c0.319,0.046,0.548,0.181,0.686,0.404c0.139,0.223,0.18,0.521,0.123,0.895
				C56.452,67.673,56.366,68.243,56.28,68.814z"/>
			<path fill="#F5F5F5" d="M59.173,69.285c-0.152-0.026-0.303-0.053-0.455-0.079c0.025-0.145,0.05-0.291,0.075-0.436
				c-0.004-0.001-0.007-0.001-0.011-0.002c-0.256,0.3-0.575,0.418-0.96,0.355c-0.283-0.046-0.493-0.155-0.63-0.328
				c-0.137-0.173-0.187-0.381-0.149-0.625c0.081-0.523,0.446-0.778,1.094-0.76c0.294,0.008,0.589,0.017,0.883,0.027
				c0.081-0.474-0.077-0.746-0.476-0.812c-0.349-0.058-0.683,0.006-1,0.191c0.024-0.153,0.049-0.306,0.073-0.459
				c0.313-0.13,0.657-0.164,1.03-0.102c0.684,0.114,0.964,0.522,0.843,1.215C59.384,68.075,59.278,68.68,59.173,69.285z
				 M58.959,67.794c-0.236-0.009-0.472-0.016-0.709-0.024c-0.218-0.006-0.387,0.019-0.507,0.076
				c-0.12,0.056-0.195,0.178-0.225,0.366c-0.022,0.137,0.01,0.256,0.095,0.359c0.086,0.103,0.211,0.167,0.376,0.194
				c0.227,0.037,0.426-0.009,0.6-0.14c0.174-0.131,0.282-0.314,0.323-0.553C58.927,67.98,58.943,67.887,58.959,67.794z"/>
		</g>
	</g>
	<g>
		<text transform="matrix(1 0 0 1 17.9132 51.4312)" fill="#FFFFFF" font-family="'BROMO'" font-size="37.8421">my</text>
		<text transform="matrix(1 0 0 1 16.84 61.0714)" fill="#FFFFFF" font-family="'BROMO'" font-size="15.1883">perro</text>
	</g>
	<g>
		<path fill="#FDF9F4" d="M52.101,44.348c2.449,0.097,5.09,6.319,1.715,6.319c-0.422,0-1.066-0.755-1.953-0.71
			s-1.164,0.816-2.642,0.599C47.401,50.29,49.624,44.25,52.101,44.348z"/>
		
			<ellipse transform="matrix(0.9347 -0.3553 0.3553 0.9347 -12.3684 19.6802)" fill="#FDF9F4" cx="47.397" cy="43.514" rx="1.658" ry="2.567"/>
		
			<ellipse transform="matrix(0.96 0.2799 -0.2799 0.96 14.5953 -14.162)" fill="#FDF9F4" cx="56.88" cy="44.018" rx="1.658" ry="2.603"/>
		
			<ellipse transform="matrix(-0.9951 0.0987 -0.0987 -0.9951 104.4299 74.26)" fill="#FDF9F4" cx="50.378" cy="39.713" rx="1.658" ry="2.95"/>
		
			<ellipse transform="matrix(-0.9762 -0.2168 0.2168 -0.9762 98.6089 90.4014)" fill="#FDF9F4" cx="54.262" cy="39.793" rx="1.658" ry="2.88"/>
	</g>
</g>
</svg>
