<?xml version="1.0" encoding="utf-8"?>
<!-- Generator: Adobe Illustrator 17.0.0, SVG Export Plug-In . SVG Version: 6.00 Build 0)  -->
<!DOCTYPE svg PUBLIC "-//W3C//DTD SVG 1.1//EN" "http://www.w3.org/Graphics/SVG/1.1/DTD/svg11.dtd">
<svg version="1.1" id="Capa_1" xmlns="http://www.w3.org/2000/svg" xmlns:xlink="http://www.w3.org/1999/xlink" x="0px" y="0px"
	 width="192px" height="198px" viewBox="0 0 192 198" enable-background="new 0 0 192 198" xml:space="preserve">
<g>
	<path fill="#F29100" d="M180.957,99c0,24.124-9.509,37.553-24.883,51.112C140.7,163.005,119.46,176.028,96,183.957
		c-23.46,7.929-44.699,1.933-60.074-15.922C20.552,150.846,11.043,121.797,11.043,99c0-24.124,9.509-37.553,24.883-51.112
		C51.301,34.995,72.54,21.972,96,14.043c23.46-7.929,44.7-1.933,60.074,15.922C171.448,47.155,180.957,76.204,180.957,99z"/>
	<g>
		<g>
			<g>
				<path fill="#2F53A0" d="M161.942,178.246c-45.028-7.132-90.898-7.132-135.926,0c1.513-3.493,3.072-6.98,4.677-10.458
					c-2.521-2.884-5.086-5.747-7.694-8.588c47.027-7.448,94.933-7.448,141.959,0c-2.225,2.901-4.414,5.819-6.568,8.751
					C159.612,171.379,160.796,174.81,161.942,178.246z"/>
			</g>
		</g>
		<g>
			<path fill="#F5F5F5" d="M34.676,167.84c0.229,1.344,0.459,2.688,0.688,4.032c-0.424,0.072-0.848,0.146-1.271,0.219
				c-0.62-3.553-1.24-7.107-1.86-10.66c1.024-0.179,2.049-0.353,3.074-0.523c1.197-0.198,2.171-0.068,2.917,0.385
				c0.745,0.453,1.194,1.188,1.351,2.202c0.157,1.014-0.077,1.9-0.695,2.66c-0.619,0.76-1.535,1.238-2.756,1.441
				C35.641,167.676,35.159,167.758,34.676,167.84z M33.736,162.335c0.249,1.458,0.498,2.916,0.747,4.374
				c0.451-0.077,0.901-0.153,1.352-0.228c0.891-0.149,1.54-0.457,1.946-0.926c0.407-0.471,0.554-1.066,0.44-1.786
				c-0.223-1.411-1.208-1.981-2.952-1.691C34.758,162.162,34.247,162.248,33.736,162.335z"/>
			<path fill="#F5F5F5" d="M47.824,166.387c-1.85,0.246-3.7,0.506-5.547,0.781c0.147,0.848,0.48,1.47,0.995,1.867
				c0.515,0.397,1.162,0.54,1.944,0.429c0.878-0.124,1.646-0.519,2.307-1.186c0.052,0.384,0.103,0.768,0.155,1.152
				c-0.62,0.581-1.489,0.948-2.612,1.108c-1.098,0.156-2.01-0.064-2.743-0.663c-0.732-0.6-1.198-1.528-1.39-2.786
				c-0.182-1.189,0.018-2.211,0.604-3.064c0.587-0.854,1.404-1.357,2.444-1.505c1.041-0.148,1.891,0.066,2.547,0.637
				c0.656,0.571,1.058,1.434,1.211,2.586C47.767,165.958,47.795,166.173,47.824,166.387z M46.392,165.522
				c-0.102-0.707-0.353-1.234-0.755-1.58c-0.403-0.345-0.914-0.475-1.534-0.387c-0.599,0.085-1.078,0.365-1.434,0.84
				c-0.357,0.474-0.534,1.052-0.531,1.734C43.555,165.917,44.973,165.715,46.392,165.522z"/>
			<path fill="#F5F5F5" d="M51.425,169.509c-0.416,0.051-0.832,0.104-1.248,0.156c-0.481-3.783-0.963-7.566-1.444-11.348
				c0.429-0.055,0.859-0.108,1.288-0.162C50.489,161.94,50.957,165.724,51.425,169.509z"/>
			<path fill="#F5F5F5" d="M60.26,168.53c-0.417,0.041-0.834,0.083-1.25,0.125c-0.041-0.405-0.082-0.811-0.124-1.216
				c-0.01,0.001-0.02,0.002-0.031,0.003c-0.426,0.984-1.179,1.532-2.265,1.65c-1.856,0.203-2.911-0.775-3.167-2.954
				c-0.179-1.529-0.357-3.058-0.536-4.587c0.423-0.049,0.845-0.098,1.268-0.146c0.166,1.465,0.332,2.929,0.497,4.394
				c0.184,1.62,0.907,2.357,2.169,2.22c0.611-0.066,1.09-0.339,1.44-0.824c0.349-0.483,0.489-1.082,0.416-1.798
				c-0.15-1.476-0.3-2.953-0.45-4.429c0.426-0.043,0.852-0.086,1.278-0.128C59.757,163.403,60.009,165.966,60.26,168.53z"/>
			<path fill="#F5F5F5" d="M69.709,171.295c-0.413,0.03-0.826,0.06-1.24,0.091c-0.122-1.623-0.244-3.246-0.366-4.869
				c-0.01,0.001-0.02,0.002-0.031,0.002c-0.472,1.045-1.322,1.614-2.557,1.716c-0.981,0.081-1.797-0.194-2.453-0.829
				c-0.656-0.636-1.041-1.546-1.151-2.733c-0.118-1.277,0.117-2.329,0.712-3.152c0.595-0.824,1.457-1.285,2.581-1.377
				c1.093-0.089,1.917,0.267,2.467,1.062c0.01-0.001,0.021-0.002,0.031-0.002c-0.027-0.356-0.054-0.712-0.08-1.069
				c0.427-0.032,0.853-0.063,1.28-0.094C69.172,163.793,69.44,167.544,69.709,171.295z M67.942,164.373
				c-0.028-0.374-0.056-0.747-0.084-1.121c-0.048-0.632-0.3-1.15-0.762-1.554c-0.46-0.404-1.022-0.579-1.681-0.525
				c-0.768,0.063-1.352,0.389-1.749,0.976c-0.398,0.588-0.55,1.381-0.462,2.378c0.079,0.887,0.353,1.564,0.821,2.03
				c0.468,0.467,1.034,0.673,1.703,0.618c0.735-0.06,1.3-0.353,1.699-0.881C67.825,165.765,67.998,165.125,67.942,164.373z"/>
			<path fill="#F5F5F5" d="M78.319,167.227c-0.418,0.019-0.836,0.039-1.254,0.06c-0.02-0.407-0.041-0.814-0.061-1.221
				c-0.01,0-0.02,0.001-0.031,0.002c-0.475,0.961-1.255,1.469-2.344,1.531c-1.862,0.107-2.864-0.924-3.008-3.113
				c-0.1-1.536-0.199-3.072-0.299-4.609c0.424-0.028,0.848-0.054,1.273-0.08c0.09,1.471,0.18,2.942,0.271,4.414
				c0.101,1.627,0.784,2.4,2.049,2.329c0.613-0.034,1.105-0.283,1.479-0.749c0.373-0.464,0.543-1.056,0.508-1.775
				c-0.074-1.482-0.148-2.964-0.222-4.447c0.427-0.021,0.854-0.042,1.281-0.062C78.081,162.081,78.2,164.654,78.319,167.227z"/>
			<path fill="#F5F5F5" d="M87.07,163.375c-1.862,0.04-3.724,0.094-5.586,0.163c0.052,0.859,0.314,1.514,0.78,1.965
				c0.467,0.452,1.093,0.665,1.88,0.641c0.885-0.026,1.689-0.334,2.419-0.924c0.009,0.387,0.018,0.775,0.026,1.162
				c-0.678,0.509-1.581,0.777-2.713,0.812c-1.105,0.034-1.986-0.286-2.647-0.962c-0.66-0.678-1.019-1.651-1.071-2.922
				c-0.049-1.201,0.261-2.195,0.936-2.978c0.676-0.783,1.541-1.193,2.589-1.225c1.048-0.032,1.868,0.275,2.456,0.915
				c0.588,0.64,0.891,1.543,0.916,2.704C87.061,162.942,87.065,163.159,87.07,163.375z M85.746,162.356
				c-0.023-0.714-0.214-1.266-0.574-1.654c-0.362-0.388-0.854-0.573-1.478-0.554c-0.603,0.018-1.109,0.244-1.514,0.676
				c-0.406,0.432-0.645,0.987-0.718,1.664C82.889,162.436,84.317,162.392,85.746,162.356z"/>
			<path fill="#F5F5F5" d="M93.101,160.378c-0.224-0.165-0.547-0.247-0.968-0.244c-0.546,0.004-1,0.257-1.36,0.759
				c-0.361,0.502-0.535,1.183-0.524,2.044c0.016,1.313,0.032,2.626,0.048,3.939c-0.418,0.005-0.837,0.011-1.255,0.018
				c-0.041-2.575-0.082-5.151-0.122-7.726c0.427-0.007,0.855-0.013,1.282-0.018c0.007,0.531,0.013,1.061,0.02,1.592
				c0.01,0,0.021,0,0.031,0c0.175-0.545,0.448-0.973,0.82-1.28c0.372-0.308,0.791-0.464,1.255-0.467
				c0.334-0.002,0.59,0.032,0.767,0.102C93.098,159.523,93.099,159.95,93.101,160.378z"/>
			<path fill="#F5F5F5" d="M95.147,157.16c-0.231,0-0.427-0.076-0.59-0.227c-0.162-0.151-0.244-0.342-0.244-0.573
				c0-0.231,0.081-0.424,0.244-0.578c0.163-0.153,0.36-0.23,0.592-0.229c0.237,0,0.438,0.078,0.604,0.231
				c0.165,0.154,0.247,0.347,0.246,0.579c-0.001,0.222-0.085,0.41-0.25,0.565C95.584,157.083,95.383,157.161,95.147,157.16z
				 M95.745,166.851c-0.418-0.001-0.837-0.002-1.255-0.002c-0.001-2.576-0.002-5.151-0.003-7.727c0.427,0,0.855,0,1.282,0.002
				C95.762,161.699,95.754,164.275,95.745,166.851z"/>
			<path fill="#F5F5F5" d="M103.893,166.971c-0.418-0.011-0.836-0.021-1.255-0.031c0.009-0.402,0.018-0.805,0.028-1.207
				c-0.01,0-0.02,0-0.031-0.001c-0.568,0.913-1.38,1.358-2.439,1.342c-0.78-0.012-1.387-0.223-1.825-0.635
				c-0.439-0.412-0.655-0.954-0.649-1.629c0.012-1.443,0.89-2.278,2.642-2.488c0.795-0.095,1.59-0.188,2.386-0.278
				c0.031-1.312-0.503-1.983-1.6-2.003c-0.963-0.018-1.837,0.287-2.616,0.913c0.005-0.423,0.009-0.845,0.014-1.268
				c0.79-0.474,1.702-0.703,2.73-0.684c1.883,0.036,2.8,1.025,2.747,2.945C103.982,163.622,103.937,165.297,103.893,166.971z
				 M102.728,163.033c-0.639,0.071-1.277,0.144-1.914,0.218c-0.589,0.07-1.035,0.206-1.335,0.406
				c-0.302,0.199-0.455,0.559-0.461,1.077c-0.005,0.377,0.129,0.687,0.399,0.93c0.27,0.242,0.632,0.367,1.088,0.375
				c0.623,0.01,1.143-0.195,1.559-0.616c0.417-0.422,0.633-0.961,0.648-1.62C102.716,163.546,102.722,163.289,102.728,163.033z"/>
			<path fill="#F5F5F5" d="M118.204,167.186c-0.839,0.367-1.86,0.513-3.066,0.443c-1.558-0.091-2.778-0.648-3.673-1.684
				c-0.893-1.035-1.312-2.353-1.242-3.962c0.075-1.729,0.674-3.103,1.809-4.117c1.134-1.013,2.544-1.474,4.215-1.375
				c1.072,0.064,1.951,0.27,2.633,0.613c-0.03,0.449-0.06,0.898-0.09,1.348c-0.775-0.486-1.653-0.759-2.627-0.817
				c-1.293-0.077-2.367,0.281-3.21,1.07c-0.843,0.788-1.294,1.878-1.36,3.265c-0.062,1.316,0.258,2.383,0.954,3.201
				c0.697,0.819,1.637,1.26,2.826,1.33c1.103,0.065,2.073-0.114,2.914-0.542C118.259,166.368,118.232,166.777,118.204,167.186z"/>
			<path fill="#F5F5F5" d="M125.832,168.236c-0.417-0.037-0.834-0.074-1.251-0.109c0.034-0.401,0.068-0.802,0.103-1.203
				c-0.01-0.001-0.02-0.002-0.031-0.003c-0.626,0.875-1.464,1.27-2.522,1.187c-0.778-0.061-1.372-0.309-1.783-0.748
				c-0.411-0.439-0.594-0.993-0.546-1.666c0.102-1.44,1.032-2.218,2.794-2.318c0.8-0.046,1.601-0.088,2.402-0.128
				c0.112-1.308-0.379-2.01-1.475-2.099c-0.959-0.078-1.851,0.172-2.669,0.748c0.031-0.421,0.062-0.843,0.093-1.264
				c0.82-0.424,1.745-0.596,2.77-0.512c1.881,0.153,2.734,1.198,2.562,3.111C126.129,164.898,125.98,166.567,125.832,168.236z
				 M124.913,164.232c-0.643,0.031-1.285,0.064-1.927,0.098c-0.593,0.033-1.045,0.141-1.359,0.322
				c-0.312,0.18-0.489,0.529-0.528,1.046c-0.028,0.376,0.086,0.694,0.34,0.953c0.256,0.259,0.61,0.406,1.064,0.442
				c0.623,0.05,1.154-0.123,1.595-0.517c0.443-0.395,0.693-0.92,0.749-1.577C124.87,164.743,124.891,164.488,124.913,164.232z"/>
			<path fill="#F5F5F5" d="M134.665,169.135c-0.416-0.048-0.833-0.095-1.249-0.141c0.162-1.46,0.324-2.92,0.486-4.38
				c0.182-1.63-0.343-2.514-1.577-2.645c-0.637-0.067-1.188,0.11-1.651,0.531c-0.463,0.421-0.729,0.984-0.799,1.69
				c-0.145,1.462-0.291,2.924-0.436,4.385c-0.417-0.041-0.834-0.082-1.25-0.122c0.246-2.564,0.491-5.128,0.737-7.692
				c0.426,0.041,0.852,0.082,1.278,0.125c-0.042,0.426-0.085,0.851-0.127,1.277c0.01,0.001,0.021,0.002,0.031,0.003
				c0.698-0.912,1.621-1.308,2.763-1.187c0.873,0.093,1.51,0.439,1.911,1.034c0.399,0.594,0.539,1.404,0.422,2.428
				C135.023,166.006,134.844,167.57,134.665,169.135z"/>
			<path fill="#F5F5F5" d="M138.842,159.874c-0.23-0.028-0.416-0.127-0.56-0.297c-0.142-0.169-0.201-0.369-0.173-0.599
				c0.028-0.23,0.132-0.411,0.312-0.544c0.181-0.132,0.386-0.185,0.617-0.156c0.236,0.029,0.426,0.13,0.573,0.303
				c0.145,0.173,0.204,0.375,0.175,0.604c-0.028,0.22-0.134,0.397-0.317,0.531C139.285,159.85,139.076,159.902,138.842,159.874z
				 M138.266,169.566c-0.416-0.052-0.832-0.103-1.248-0.154c0.31-2.557,0.62-5.114,0.931-7.671c0.425,0.052,0.85,0.104,1.275,0.157
				C138.904,164.454,138.585,167.01,138.266,169.566z"/>
			<path fill="#F5F5F5" d="M147.246,170.805c-0.415-0.063-0.83-0.125-1.244-0.186c0.214-1.453,0.429-2.906,0.643-4.36
				c0.24-1.622-0.255-2.525-1.483-2.701c-0.635-0.09-1.193,0.067-1.671,0.471c-0.479,0.404-0.765,0.958-0.86,1.66
				c-0.198,1.456-0.396,2.911-0.594,4.367c-0.415-0.057-0.831-0.112-1.247-0.167c0.338-2.553,0.676-5.107,1.014-7.66
				c0.425,0.056,0.849,0.113,1.274,0.171c-0.058,0.424-0.115,0.847-0.173,1.271c0.01,0.001,0.021,0.003,0.031,0.004
				c0.729-0.886,1.668-1.249,2.807-1.086c0.869,0.125,1.495,0.493,1.873,1.102c0.38,0.608,0.49,1.423,0.336,2.442
				C147.716,167.692,147.481,169.248,147.246,170.805z"/>
			<path fill="#F5F5F5" d="M155.141,172.091c-0.414-0.072-0.827-0.144-1.241-0.214c0.068-0.397,0.136-0.793,0.203-1.19
				c-0.01-0.002-0.02-0.003-0.03-0.005c-0.699,0.82-1.568,1.142-2.619,0.97c-0.772-0.126-1.344-0.424-1.718-0.896
				c-0.374-0.472-0.51-1.04-0.406-1.706c0.222-1.426,1.216-2.124,2.984-2.074c0.803,0.022,1.607,0.047,2.41,0.074
				c0.222-1.294-0.211-2.035-1.298-2.216c-0.952-0.158-1.863,0.016-2.729,0.52c0.066-0.417,0.132-0.835,0.199-1.252
				c0.855-0.353,1.793-0.446,2.81-0.277c1.866,0.311,2.631,1.424,2.299,3.316C155.717,168.79,155.429,170.441,155.141,172.091z
				 M154.558,168.024c-0.645-0.023-1.289-0.045-1.934-0.065c-0.595-0.017-1.056,0.052-1.385,0.206
				c-0.327,0.153-0.533,0.486-0.615,0.998c-0.06,0.372,0.027,0.698,0.26,0.978c0.234,0.28,0.575,0.456,1.026,0.53
				c0.618,0.102,1.163-0.025,1.637-0.381c0.476-0.356,0.77-0.858,0.881-1.508C154.471,168.529,154.514,168.277,154.558,168.024z"/>
		</g>
	</g>
	<g>
		<text transform="matrix(1 0 0 1 42.5506 123.371)" fill="#FFFFFF" font-family="'BROMO'" font-size="103.2637">my</text>
		<text transform="matrix(1 0 0 1 39.6221 149.6767)" fill="#FFFFFF" font-family="'BROMO'" font-size="41.446">perro</text>
	</g>
	<g>
		<path fill="#FDF9F4" d="M135.844,104.043c6.683,0.265,13.888,17.244,4.681,17.244c-1.151,0-2.908-2.06-5.331-1.938
			c-2.423,0.121-3.177,2.226-7.208,1.636C123.019,120.257,129.085,103.776,135.844,104.043z"/>
		
			<ellipse transform="matrix(0.9347 -0.3553 0.3553 0.9347 -28.1327 50.3467)" fill="#FDF9F4" cx="123.006" cy="101.767" rx="4.523" ry="7.006"/>
		
			<ellipse transform="matrix(0.96 0.2799 -0.2799 0.96 34.8233 -37.5519)" fill="#FDF9F4" cx="148.884" cy="103.143" rx="4.523" ry="7.102"/>
		
			<ellipse transform="matrix(-0.9951 0.0987 -0.0987 -0.9951 270.6638 169.4005)" fill="#FDF9F4" cx="131.141" cy="91.396" rx="4.523" ry="8.049"/>
		
			<ellipse transform="matrix(-0.9762 -0.2168 0.2168 -0.9762 260.2539 211.7709)" fill="#FDF9F4" cx="141.741" cy="91.613" rx="4.523" ry="7.858"/>
	</g>
</g>
</svg>
