<?xml version="1.0" encoding="utf-8"?>
<!-- Generator: Adobe Illustrator 17.0.0, SVG Export Plug-In . SVG Version: 6.00 Build 0)  -->
<!DOCTYPE svg PUBLIC "-//W3C//DTD SVG 1.1//EN" "http://www.w3.org/Graphics/SVG/1.1/DTD/svg11.dtd">
<svg version="1.1" id="Capa_1" xmlns="http://www.w3.org/2000/svg" xmlns:xlink="http://www.w3.org/1999/xlink" x="0px" y="0px"
	 width="75px" height="85px" viewBox="0 0 75 85" enable-background="new 0 0 75 85" xml:space="preserve">
<path fill="#FFFFFF" d="M57.51,12.619c0.459,1.215,1.074,2.396,1.348,3.651c0.729,3.338-0.348,6.315-2.24,9.01
	c-4.742,6.756-9.535,13.477-14.249,20.129c2.251,3.911,4.439,7.777,6.698,11.6c0.825,1.396,1.121,1.374,2.335,0.269
	c3.14-2.859,8.084-2.363,10.838,1.169c1.942,2.49,2.488,5.322,1.563,8.365c-0.945,3.108-3.459,5.099-6.577,5.295
	c-3.55,0.224-6.778-1.647-8.179-4.84c-1.072-2.444-1.988-4.957-3.076-7.394c-1.774-3.975-4.723-6.933-8.296-9.336
	c-4.401,2.799-7.608,6.536-9.499,11.376c-0.614,1.57-1.271,3.124-1.864,4.702c-1.088,2.897-3.104,4.736-6.107,5.496
	c-0.168,0.043-0.314,0.177-0.47,0.269c-0.846,0-1.691,0-2.537,0c-0.117-0.075-0.227-0.201-0.352-0.219
	c-4.489-0.66-7.405-5.852-5.491-11.056c1.858-5.052,7.501-7.37,12.082-3.768c1.525,1.199,1.653,1.258,2.707-0.406
	c0.201-0.317,0.372-0.652,0.563-0.975c1.835-3.107,3.611-6.251,5.543-9.296c0.561-0.885,0.514-1.382-0.059-2.185
	c-4.336-6.071-8.564-12.22-12.943-18.259c-3.088-4.26-4.422-8.642-1.767-13.597c0.282,0,0.564,0,0.846,0
	c0.16,0.322,0.278,0.676,0.487,0.962c6.081,8.326,12.172,16.644,18.255,24.969c0.158,0.216,0.239,0.487,0.378,0.776
	c0.383-0.424,0.52-0.553,0.63-0.702c6.165-8.381,12.329-16.763,18.483-25.152c0.181-0.246,0.26-0.568,0.386-0.854
	C57.134,12.619,57.322,12.619,57.51,12.619z M14.094,64.454c0.026,2.492,1.939,4.475,4.317,4.475c2.717,0,5.295-2.647,5.274-5.416
	c-0.018-2.435-2.05-4.317-4.635-4.293C16.231,59.246,14.063,61.536,14.094,64.454z M51.311,63.332
	c-0.038,2.764,2.529,5.396,5.264,5.397c2.424,0.001,4.289-1.917,4.323-4.444c0.039-2.925-2.128-5.209-4.949-5.217
	C53.29,59.061,51.345,60.849,51.311,63.332z"/>
</svg>
