<?xml version="1.0" encoding="utf-8"?>
<!-- Generator: Adobe Illustrator 17.0.0, SVG Export Plug-In . SVG Version: 6.00 Build 0)  -->
<!DOCTYPE svg PUBLIC "-//W3C//DTD SVG 1.1//EN" "http://www.w3.org/Graphics/SVG/1.1/DTD/svg11.dtd">
<svg version="1.1" id="Capa_1" xmlns="http://www.w3.org/2000/svg" xmlns:xlink="http://www.w3.org/1999/xlink" x="0px" y="0px"
	 width="75px" height="85px" viewBox="0 0 75 85" enable-background="new 0 0 75 85" xml:space="preserve">
<g>
	<path fill="#FFFFFF" d="M70.542,75.291c-8.536,0-16.711,0-25.138,0c-0.058-1.006-0.155-1.917-0.157-2.829
		c-0.016-8.378,0.079-16.757-0.072-25.132c-0.052-2.874,0.463-5.342,2.335-7.574c1.083-1.292,1.896-2.811,3.004-4.491
		c-1.014-0.224-1.769-0.391-2.577-0.57c-0.109-1.148-0.212-2.221-0.314-3.294c-0.185-0.076-0.371-0.151-0.556-0.227
		c-6.879,11.911-13.759,23.822-20.755,35.936c-2.892-1.579-5.565-3.04-8.498-4.642c-0.753,1.2-1.453,2.316-2.356,3.756
		c2.462,1.43,4.787,2.779,7.353,4.27c-0.849,1.543-1.649,2.995-2.649,4.812c-5.321-2.986-10.477-5.878-15.855-8.896
		c0.935-1.663,1.752-3.118,2.69-4.788c2.077,1.125,3.999,2.166,6.123,3.316c0.748-1.247,1.429-2.383,2.269-3.784
		c-2.553-1.511-4.937-2.921-7.583-4.486c7.711-13.374,15.337-26.6,23.11-40.081c2.672,1.481,5.235,2.901,7.787,4.315
		c3.625-3.591,3.822-9.865,10.149-11.206c-2.441,4.325-4.756,8.426-7.201,12.758c2.593,1.536,5.048,2.991,7.58,4.492
		c-0.495,1.153-0.918,2.136-1.5,3.489c6.48,0,12.659,0,18.996,0c0.042,2.06,1.284,4.117-1.705,4.928
		c0.379,0.61,0.609,1.188,1.011,1.595c4.009,4.06,4.894,8.922,4.609,14.498C70.242,59.289,70.542,67.159,70.542,75.291z
		 M68.023,58.076c0-4.015,0.058-8.032-0.039-12.045c-0.025-1.047-0.306-2.225-0.86-3.094c-1.467-2.301-3.099-4.503-4.777-6.658
		c-0.469-0.602-1.293-1.217-2.009-1.291c-3.909-0.401-7.695-0.46-9.446,4.223c-0.495,1.324-1.643,2.39-2.339,3.658
		c-0.433,0.789-0.81,1.734-0.816,2.612c-0.061,8.372-0.007,16.745-0.063,25.117c-0.011,1.652,0.564,2.279,2.224,2.26
		c5.296-0.06,10.594-0.077,15.89,0.008c1.886,0.03,2.291-0.822,2.261-2.487C67.972,66.279,68.023,62.177,68.023,58.076z
		 M25.467,64.085c7.015-12.194,13.85-24.075,20.842-36.23c-4.906-2.763-9.609-5.413-14.552-8.197
		C24.724,31.85,17.871,43.73,10.88,55.848c1.923,1.096,3.66,2.087,5.691,3.244c3.268-5.657,6.395-11.069,9.555-16.539
		c-1.3-0.835-2.293-1.473-3.287-2.111c-0.054-0.244-0.108-0.488-0.161-0.732c0.724-0.176,1.639-0.725,2.142-0.468
		c3.103,1.589,6.114,3.36,9.303,5.154c-0.417,0.684-0.745,1.223-1.104,1.811c-1.553-0.819-2.956-1.559-4.561-2.405
		c-3.231,5.601-6.327,10.966-9.548,16.548C21.15,61.627,23.125,62.752,25.467,64.085z"/>
	<path fill="#FFFFFF" d="M50.515,46.558c3.446,0,6.72,0,10.157,0c0,7.928,0,15.714,0,23.643c-3.444,0-6.716,0-10.157,0
		C50.515,62.268,50.515,54.478,50.515,46.558z"/>
	<path fill="#FFFFFF" d="M40.403,33.638c-0.485,0.851-1.188,2.085-1.785,3.134c-1.316-0.074-2.393-0.134-3.471-0.195
		c-0.035,0.273-0.069,0.546-0.104,0.818c0.657,0.516,1.315,1.032,2.207,1.732c-0.635,1.098-1.288,2.228-2.041,3.53
		c-3.529-1.986-6.854-3.856-10.508-5.912c2.717-4.734,5.328-9.284,8.055-14.037c3.571,2.002,6.958,3.9,10.511,5.892
		c-0.565,1.007-1.012,1.803-1.284,2.288c-1.295-0.102-2.294-0.181-3.292-0.259C39.199,31.522,39.706,32.414,40.403,33.638z"/>
</g>
</svg>
